<svg width="25" height="25" viewBox="0 0 25 25" fill="none" xmlns="http://www.w3.org/2000/svg">
<path d="M12.5 25C19.3921 25 25 19.3926 25 12.5C25 11.3103 24.8339 10.1379 24.5051 9.01515C24.3431 8.46303 23.7666 8.1459 23.2129 8.3079C22.6603 8.46939 22.3442 9.04795 22.5057 9.60007C22.7781 10.5329 22.9167 11.5089 22.9167 12.5C22.9167 18.2437 18.2437 22.9167 12.5 22.9167C6.75634 22.9167 2.08333 18.2437 2.08333 12.5C2.08333 6.75634 6.75634 2.08333 12.5 2.08333C14.5874 2.08333 16.5957 2.69368 18.3077 3.84801C18.7843 4.16972 19.4323 4.04332 19.7535 3.56674C20.075 3.08965 19.9496 2.44217 19.4725 2.12072C17.4151 0.733439 15.0042 0 12.5 0C5.60786 0 0 5.60735 0 12.5C0 19.3926 5.60786 25 12.5 25Z" fill="white"/>
<path d="M23.2219 2.38848L12.5 13.1098L9.06984 9.68015C8.66294 9.2735 8.00376 9.2735 7.59686 9.68015C7.19021 10.087 7.19021 10.7462 7.59686 11.1531L11.7635 15.3198C11.9672 15.5235 12.2332 15.625 12.5 15.625C12.7668 15.625 13.0328 15.5235 13.2365 15.3198L24.6948 3.86146C25.1015 3.45456 25.1015 2.79538 24.6948 2.38848C24.2879 1.98183 23.6288 1.98183 23.2219 2.38848Z" fill="white"/>
</svg>
