<svg width="30" height="30" viewBox="0 0 30 30" fill="none" xmlns="http://www.w3.org/2000/svg">
<path d="M26.6667 0H2.66666C1.19333 0 0 1.19334 0 2.66667V26.6667C0 28.1401 1.19333 29.3333 2.66666 29.3333H16V17.3333H12V13.3333H16V11.1854C16 7.11865 17.9813 5.33335 21.3613 5.33335C22.98 5.33335 23.836 5.45335 24.2413 5.50805V9.33335H21.936C20.5013 9.33335 20 10.0907 20 11.6241V13.3333H24.2053L23.6347 17.3333H20V29.3333H26.6667C28.14 29.3333 29.3333 28.1401 29.3333 26.6667V2.66667C29.3333 1.19334 28.1387 0 26.6667 0Z" fill="#4267B2"/>
</svg>
