<svg width="38" height="40" viewBox="0 0 38 40" fill="none" xmlns="http://www.w3.org/2000/svg">
<ellipse cx="19" cy="19.9125" rx="19" ry="19.25" fill="#0192FF"/>
<path d="M26.758 10.9203H25.2254V9.56742C25.2254 9.0259 24.7226 8.70618 24.1955 8.70618H22.783C22.2564 8.70618 21.8733 9.0259 21.8733 9.56742V10.9203H16.1265V9.56742C16.1265 9.0259 15.7433 8.70618 15.2167 8.70618H13.8038C13.2772 8.70618 12.7744 9.0259 12.7744 9.56742V10.9203H11.2418C10.2633 10.8925 9.44842 11.6845 9.42138 12.6894C9.42046 12.7313 9.42046 12.7727 9.4223 12.8146V27.0343C9.4223 28.1168 10.1886 29.1254 11.2423 29.1254H26.7584C27.8121 29.1254 28.5784 28.1168 28.5784 27.0343V12.8146C28.6183 11.8102 27.8584 10.9622 26.8803 10.9212C26.8391 10.9193 26.7983 10.9193 26.758 10.9203ZM22.783 9.69032H24.2675V12.3965H22.783V9.69032ZM13.8038 9.69032H15.1686V12.3965H13.8038V9.69032ZM11.2418 11.9044H12.7744V12.4454C12.7744 12.9865 13.2772 13.3801 13.8042 13.3801H15.2167C15.7058 13.3938 16.1132 12.9978 16.1265 12.4954C16.127 12.4789 16.127 12.4619 16.1265 12.4454V11.9044H21.8733V12.4454C21.86 12.9479 22.2454 13.3665 22.7344 13.3801C22.7505 13.3806 22.767 13.3806 22.783 13.3801H24.1955C24.7221 13.3801 25.2254 12.9865 25.2254 12.4454V11.9044H26.758C27.2067 11.8752 27.5935 12.2255 27.6219 12.6865C27.6246 12.7294 27.6237 12.7722 27.6201 12.8146V15.5947H10.3797V12.8146C10.3389 12.3546 10.6694 11.9477 11.1171 11.9063C11.1584 11.902 11.2001 11.9016 11.2418 11.9044ZM26.758 28.1408H11.2418C10.7152 28.1408 10.3797 27.5748 10.3797 27.0338V16.5784H27.6196V27.0338C27.6196 27.5753 27.2846 28.1408 26.758 28.1408Z" fill="white"/>
<path d="M21.3436 25.8947L21.1307 25.8513L19.0002 24.8249L16.8697 25.8513C16.6382 25.9628 16.3518 25.8805 16.2308 25.6665C16.1833 25.5826 16.1665 25.4864 16.1833 25.3924L16.6092 23.2093L14.8811 21.6811C14.7574 21.5578 14.7125 21.384 14.7628 21.2227C14.8267 21.0735 14.9703 20.9657 15.1416 20.9389L17.5086 20.6113L18.5738 18.6246C18.688 18.4077 18.9707 18.317 19.2064 18.4219C19.3024 18.4646 19.3794 18.536 19.4261 18.6246L20.4913 20.6113L22.8583 20.9389C23.0296 20.9661 23.1732 21.0735 23.2371 21.2227C23.2874 21.384 23.2426 21.5578 23.1189 21.6811L21.3908 23.2093L21.8167 25.3924C21.8416 25.5525 21.7686 25.7121 21.6273 25.8074C21.5466 25.8659 21.4465 25.8964 21.3436 25.8947ZM19.0002 23.8863L19.2132 23.9298L20.7043 24.672L20.4202 23.122C20.3971 22.9778 20.4497 22.8316 20.562 22.7292L21.7691 21.6594L20.0885 21.4412C19.9399 21.4207 19.814 21.3292 19.7573 21.2009L18.9997 19.8035L18.2422 21.2009C18.1855 21.3292 18.0596 21.4207 17.9109 21.4412L16.2304 21.6594L17.4375 22.7292C17.5498 22.832 17.6028 22.9778 17.5793 23.122L17.2952 24.672L18.7863 23.9298L19.0002 23.8863Z" fill="white"/>
</svg>
