<svg width="30" height="30" viewBox="0 0 30 30" fill="none" xmlns="http://www.w3.org/2000/svg">
<g clip-path="url(#clip0)">
<path d="M1.83313 1.99569C-0.471721 4.38975 3.21865e-06 6.9329 3.21865e-06 14.6589C3.21865e-06 21.0749 -1.11942 27.5067 4.73924 29.0208C6.5687 29.4913 22.7784 29.4913 24.6054 29.0184C27.0447 28.389 29.0294 26.4105 29.3007 22.9605C29.3386 22.479 29.3386 6.84736 29.2994 6.35608C29.011 2.68127 26.749 0.563405 23.7683 0.134453C23.0852 0.0354647 22.9483 0.00613466 19.4433 2.42442e-05C7.01109 0.00613466 4.28585 -0.547469 1.83313 1.99569Z" fill="url(#paint0_linear)"/>
<path d="M14.6625 3.83617C10.2251 3.83617 6.01138 3.44143 4.40189 7.57207C3.73708 9.2781 3.83363 11.4937 3.83363 14.6663C3.83363 17.4502 3.74441 20.0667 4.40189 21.7592C6.00771 25.8923 10.2557 25.4964 14.6601 25.4964C18.9092 25.4964 23.2904 25.9388 24.9195 21.7592C25.5855 20.0361 25.4877 17.8535 25.4877 14.6663C25.4877 10.4354 25.7211 7.70406 23.6693 5.6534C21.5917 3.57586 18.7821 3.83617 14.6576 3.83617H14.6625ZM13.6922 5.78783C22.9482 5.77317 24.1263 4.74418 23.4762 19.0389C23.2452 24.0946 19.3956 23.5398 14.6637 23.5398C6.03582 23.5398 5.78774 23.293 5.78774 14.6614C5.78774 5.92959 6.4721 5.79272 13.6922 5.78539V5.78783ZM20.443 7.58552C19.7256 7.58552 19.1439 8.16723 19.1439 8.88459C19.1439 9.60195 19.7256 10.1837 20.443 10.1837C21.1603 10.1837 21.742 9.60195 21.742 8.88459C21.742 8.16723 21.1603 7.58552 20.443 7.58552V7.58552ZM14.6625 9.10457C11.5914 9.10457 9.10203 11.5952 9.10203 14.6663C9.10203 17.7374 11.5914 20.2267 14.6625 20.2267C17.7336 20.2267 20.2218 17.7374 20.2218 14.6663C20.2218 11.5952 17.7336 9.10457 14.6625 9.10457V9.10457ZM14.6625 11.0562C19.4347 11.0562 19.4409 18.2763 14.6625 18.2763C9.89149 18.2763 9.88416 11.0562 14.6625 11.0562Z" fill="white"/>
</g>
<defs>
<linearGradient id="paint0_linear" x1="1.88937" y1="27.4567" x2="29.1485" y2="3.86423" gradientUnits="userSpaceOnUse">
<stop stop-color="#FFDD55"/>
<stop offset="0.5" stop-color="#FF543E"/>
<stop offset="1" stop-color="#C837AB"/>
</linearGradient>
<clipPath id="clip0">
<rect width="29.33" height="29.33" fill="white"/>
</clipPath>
</defs>
</svg>
