<svg width="69" height="42" viewBox="0 0 69 42" fill="none" xmlns="http://www.w3.org/2000/svg">
<g filter="url(#filter0_d)">
<path d="M18.1377 13.528V24.76C18.1377 25.768 18.0897 26.704 16.2177 26.704H15.8337V28H24.5937V26.704H24.1857C22.2657 26.704 22.2897 25.744 22.2897 24.76V13.528H23.6097C25.0257 13.528 26.2257 13.648 26.8497 16.624H28.1697V12.112H12.2577V16.624H13.5777C13.8417 13.528 15.4977 13.528 16.7457 13.528H18.1377Z" fill="url(#paint0_linear)"/>
<path d="M19.7 28.5H18.4C17.55 32.525 14.775 32.525 13.675 32.525C11.1 32.525 11.1 31.825 11.1 30.275V20.825C11.1 19.25 11.425 18.8 13.425 18.8V17.45H4.55V18.8C6.575 18.8 6.775 19.4 6.775 20.825V30.625C6.775 32.45 6.275 32.65 4.55 32.65V34H19.625L19.7 28.5Z" fill="url(#paint1_linear)"/>
<path d="M30.04 33.2C32.14 33.2 33.88 31.2 33.88 28.1C33.88 24.9 32.14 23.08 30.1 23.08C28.54 23.08 27.42 24.14 27.08 25.7V18.02H24.24V18.06C25.1 18.46 25.38 18.96 25.38 20.2V28.74C25.38 30.5 25.36 32.02 25.12 33.2C25.96 32.88 26.82 31.72 26.96 30.68C27.32 32.26 28.54 33.2 30.04 33.2ZM32.02 28.1C32.02 30.64 31.08 32.44 29.54 32.44C28.36 32.44 27.08 31.24 27.08 28.98V27.22C27.08 25 28.38 23.82 29.56 23.82C31.1 23.82 32.02 25.52 32.02 28.1ZM39.365 33.2C41.805 33.2 43.565 31.04 43.565 28.12C43.565 25.22 41.805 23.08 39.365 23.08C36.905 23.08 35.145 25.22 35.145 28.12C35.145 31.04 36.905 33.2 39.365 33.2ZM39.365 32.8C37.825 32.8 37.025 30.7 37.025 28.12C37.025 25.54 37.825 23.48 39.365 23.48C40.905 23.48 41.685 25.54 41.685 28.12C41.685 30.7 40.905 32.8 39.365 32.8ZM49.0134 33.2C51.4534 33.2 53.2134 31.04 53.2134 28.12C53.2134 25.22 51.4534 23.08 49.0134 23.08C46.5534 23.08 44.7934 25.22 44.7934 28.12C44.7934 31.04 46.5534 33.2 49.0134 33.2ZM49.0134 32.8C47.4734 32.8 46.6734 30.7 46.6734 28.12C46.6734 25.54 47.4734 23.48 49.0134 23.48C50.5534 23.48 51.3334 25.54 51.3334 28.12C51.3334 30.7 50.5534 32.8 49.0134 32.8ZM56.8866 27.4V18.02H54.0466V18.06C54.9066 18.46 55.1866 18.96 55.1866 20.2V30.92C55.1866 32.24 55.0266 32.56 54.1466 32.96V33H57.9066V32.96C57.0466 32.56 56.8866 32.24 56.8866 30.92V27.84H57.1666C57.4666 27.84 57.6266 27.94 57.8266 28.26L59.9466 31.56C60.2466 32.02 60.5466 32.46 60.6466 33H63.7866V32.96C62.9466 32.66 62.3066 32.18 61.6466 31.18L59.0666 27.26L60.8666 25C61.5666 24.12 62.3266 23.6 63.3066 23.32V23.28H59.9466V23.32C60.3666 23.5 60.5666 23.82 60.5666 24.18C60.5666 24.42 60.4866 24.66 60.3066 24.88L58.8866 26.68C58.3866 27.3 58.0066 27.4 57.4866 27.4H56.8866Z" fill="url(#paint2_linear)"/>
</g>
<defs>
<filter id="filter0_d" x="0.550049" y="12.1119" width="67.2365" height="29.888" filterUnits="userSpaceOnUse" color-interpolation-filters="sRGB">
<feFlood flood-opacity="0" result="BackgroundImageFix"/>
<feColorMatrix in="SourceAlpha" type="matrix" values="0 0 0 0 0 0 0 0 0 0 0 0 0 0 0 0 0 0 127 0" result="hardAlpha"/>
<feOffset dy="4"/>
<feGaussianBlur stdDeviation="2"/>
<feComposite in2="hardAlpha" operator="out"/>
<feColorMatrix type="matrix" values="0 0 0 0 0 0 0 0 0 0 0 0 0 0 0 0 0 0 0.55 0"/>
<feBlend mode="normal" in2="BackgroundImageFix" result="effect1_dropShadow"/>
<feBlend mode="normal" in="SourceGraphic" in2="effect1_dropShadow" result="shape"/>
</filter>
<linearGradient id="paint0_linear" x1="22.9643" y1="0" x2="22.9643" y2="28" gradientUnits="userSpaceOnUse">
<stop offset="0.9999" stop-color="#CDB017"/>
<stop offset="1" stop-color="white" stop-opacity="0.86"/>
</linearGradient>
<linearGradient id="paint1_linear" x1="14.1144" y1="5" x2="14.1144" y2="34" gradientUnits="userSpaceOnUse">
<stop offset="0.9999" stop-color="#CDB017"/>
<stop offset="1" stop-color="white" stop-opacity="0.86"/>
</linearGradient>
<linearGradient id="paint2_linear" x1="46.1856" y1="17" x2="46.1856" y2="40" gradientUnits="userSpaceOnUse">
<stop offset="0.9999" stop-color="#CDB017"/>
<stop offset="1" stop-color="white" stop-opacity="0.86"/>
</linearGradient>
</defs>
</svg>
