<svg width="6" height="20" viewBox="0 0 6 20" fill="none" xmlns="http://www.w3.org/2000/svg">
<path d="M0.6 2.7C0.6 4.15 1.8 5.3 3.2 5.3C4.65 5.3 5.85 4.15 5.85 2.7C5.85 1.25 4.65 0.0499997 3.2 0.0499997C1.75 0.0499997 0.6 1.25 0.6 2.7ZM0.6 9.7C0.6 11.15 1.8 12.3 3.2 12.3C4.65 12.3 5.85 11.15 5.85 9.7C5.85 8.25 4.65 7.05 3.2 7.05C1.75 7.05 0.6 8.25 0.6 9.7ZM0.6 16.7C0.6 18.15 1.8 19.3 3.2 19.3C4.65 19.3 5.85 18.15 5.85 16.7C5.85 15.25 4.65 14.05 3.2 14.05C1.75 14.05 0.6 15.25 0.6 16.7Z" fill="white"/>
</svg>
