<svg width="167" height="99" viewBox="0 0 167 99" fill="none" xmlns="http://www.w3.org/2000/svg">
<path d="M11.18 54.72C22.36 56.02 32.5 53.03 30.81 67.46C29.77 76.82 23.66 95.41 27.69 96.84H28.08C33.8 96.84 38.22 54.07 45.11 27.29C45.37 26.12 47.58 17.41 47.84 17.28C47.97 17.15 48.23 17.02 48.23 16.76C48.23 16.37 73.45 7.13999 81.9 7.13999C82.55 7.13999 83.2 7.13999 83.59 7.26999C86.06 7.91999 85.8 9.60999 86.71 9.87C87.1 10 88.01 9.73999 87.1 8.18C85.93 6.23 83.85 5.58 81.38 5.58C78.91 5.58 76.31 6.23 73.97 6.75C58.89 10.26 16.9 25.08 5.85 36.13C-2.08 44.32 -1.56 53.16 11.18 54.72ZM3.38 42.11C8.71 32.36 25.22 25.73 40.3 19.62C46.54 17.28 46.15 17.28 46.02 17.67C39.65 35.74 33.67 88.52 27.95 95.15C27.04 86.96 33.8 70.58 32.37 62.13C30.29 50.3 15.34 55.37 6.63 52.25C1.82 50.56 1.04 46.53 3.38 42.11ZM65.8318 1.55C65.3118 1.55 64.6618 1.80999 64.0118 2.45999C60.2418 5.96999 57.3818 16.24 55.9518 21.31C49.9718 41.07 50.8818 46.66 49.7118 47.57C49.1918 47.96 49.4518 48.35 49.8418 48.87C48.9318 55.63 48.8018 56.54 48.8018 56.93C48.9318 57.45 49.1918 57.71 49.5818 57.71C49.8418 57.71 50.2318 57.58 50.4918 57.32C50.4918 57.32 54.9118 50.43 56.0818 49.78C56.3418 49.65 55.3018 56.15 55.9518 57.84C56.0818 58.36 56.4718 58.75 57.1218 58.75C59.0718 58.75 62.9718 52.12 63.7518 50.56C64.2718 49.78 64.4018 49.13 62.8418 49C62.0618 50.17 58.2918 56.41 57.5118 56.8C57.1218 56.93 57.9018 50.82 57.7718 49.52C57.6418 48.87 57.3818 48.48 57.1218 48.22C56.8618 48.09 56.3418 47.96 56.0818 47.96C54.6518 48.09 51.6618 51.99 51.0118 53.42C50.8818 53.42 51.1418 52.25 51.7918 47.7C60.1118 36.78 68.0418 10.13 67.5218 4.02C67.3918 2.32999 66.7418 1.55 65.8318 1.55ZM52.5718 42.89C54.6518 30.15 59.5918 14.55 61.2818 10.39C63.2318 5.71 65.4418 2.97999 65.7018 3.24C67.6518 4.79999 60.1118 30.93 52.9618 43.02C52.5718 43.67 52.4418 44.06 52.4418 44.06C52.3118 44.06 52.4418 43.67 52.5718 42.89ZM80.341 49C78.131 50.82 74.491 54.2 72.931 54.2C72.281 54.2 71.891 53.68 72.021 52.51C72.281 50.43 73.191 48.74 72.801 48.09C72.671 47.7 72.411 47.57 72.151 47.57C70.591 47.57 68.121 52.64 65.521 54.2C64.611 54.85 66.041 50.3 67.991 49C68.251 49.13 68.381 49.26 68.641 49.26C69.161 49.26 69.421 48.48 68.771 47.96C68.511 47.7 68.251 47.7 67.991 47.7C66.171 47.7 63.571 52.12 63.701 54.33C63.831 55.24 64.351 55.89 65.131 55.89C65.651 55.89 66.171 55.76 66.821 55.24C68.251 54.07 70.721 50.95 70.721 50.95C70.721 50.95 69.551 55.63 72.931 55.63C75.011 55.63 77.091 53.68 80.991 50.43C81.511 50.04 81.641 49.26 80.341 49ZM89.7467 58.62C90.2667 57.84 89.0967 59.14 91.1767 49.91C91.4367 48.74 92.0867 46.66 90.3967 46.79C88.8367 46.92 84.5467 52.51 84.4167 52.25C84.4167 52.12 84.8067 50.43 85.1967 49.13C85.5867 47.83 85.5867 47.7 85.1967 47.44C85.0667 47.31 84.9367 47.18 84.8067 47.18C84.5467 47.18 84.2867 47.31 84.1567 47.57C84.1567 47.57 81.8167 53.29 82.9867 54.46C83.2467 54.72 83.5067 54.85 83.7667 54.85C84.6767 54.85 85.9767 53.29 86.7567 52.25C88.5767 50.17 89.3567 49.26 89.4867 49.26C89.8767 49.26 88.8367 51.73 88.3167 56.54C88.1867 58.1 88.1867 58.62 88.7067 58.88H88.9667C89.3567 58.88 89.6167 58.75 89.7467 58.62ZM110.167 1.28999C104.967 4.67 98.0769 46.27 97.5569 47.05C97.2969 47.31 97.2969 47.44 97.4269 47.7C97.5569 48.35 95.3469 58.49 96.2569 60.05C96.5169 60.57 96.9069 60.83 97.2969 60.83C97.9469 60.83 98.4669 60.05 97.8169 59.4C97.5569 59.14 97.6869 59.4 97.6869 58.62C97.6869 58.36 97.8169 56.15 97.9469 56.28C98.2069 56.28 98.3369 56.41 98.5969 56.41C101.847 56.41 107.177 52.51 109.647 50.82C110.427 50.3 110.947 49.39 109.257 49C107.957 49.91 101.327 54.72 98.8569 54.72C98.5969 54.72 98.4669 54.72 98.3369 54.59C97.6869 54.2 98.8569 50.56 101.977 49C102.367 48.74 103.017 48.48 103.277 48.48C103.407 48.48 103.537 48.61 103.537 48.74C103.667 49.13 104.057 49.26 104.317 49.26C104.707 49.26 105.097 49 104.967 48.48C104.837 47.7 104.447 47.31 103.797 47.05C103.537 46.92 103.277 46.92 103.147 46.92C101.067 46.92 98.9869 49.26 98.9869 49.13C98.9869 49.13 98.9869 48.87 99.2469 47.31C110.817 32.49 116.797 0.899998 111.337 0.899998C111.077 0.899998 110.557 1.03 110.167 1.28999ZM111.077 2.72C111.597 2.59 113.417 9.60999 108.087 25.47C104.577 35.74 99.7669 44.45 100.027 43.54C101.327 36.26 106.527 10.78 109.907 4.27999C110.297 3.62999 110.947 2.72 111.077 2.72ZM97.0105 93.46C97.4005 96.06 99.0905 98.01 101.3 98.01C110.14 98.01 116.51 72.4 118.2 65.77C132.5 50.56 135.23 49.39 131.98 49C128.6 52.64 119.11 62.52 119.11 62.52C118.98 62.52 119.37 61.22 120.8 53.68C121.58 50.3 122.62 47.57 120.93 47.57C119.5 47.57 116.12 52.77 114.69 52.77C113.65 52.77 113.78 49.91 113.91 48.87C114.04 48.09 114.04 47.7 113.52 47.57C113.39 47.44 113.26 47.44 113.13 47.57C112.48 47.7 112.48 48.35 112.48 49C112.09 50.82 112.22 52.12 112.74 53.03C113.13 54.07 114.04 54.46 114.95 54.46C117.16 54.07 119.63 50.3 119.76 50.43C119.76 50.43 118.07 59.53 116.77 64.99C101.69 80.85 96.1005 87.74 97.0105 93.46ZM98.7005 90.99C99.4805 86.31 105.07 80.33 108.45 76.43C111.31 73.31 115.86 68.37 115.86 68.37C115.86 68.37 109.75 93.98 102.08 96.19C101.82 96.32 101.56 96.32 101.3 96.32C99.3505 96.32 98.1805 93.59 98.7005 90.99ZM136.451 58.62C138.141 58.62 140.221 57.19 141.781 53.94C143.731 53.29 143.991 53.16 148.021 50.82C149.191 50.17 148.671 49.26 147.501 49C143.861 51.21 142.691 51.86 142.301 51.86C142.171 51.86 142.301 51.73 142.301 51.47C142.431 50.04 142.041 48.22 140.871 47.18C140.221 46.66 139.571 46.4 138.921 46.4C136.581 46.4 134.241 49.13 135.281 52.12C133.331 56.41 134.371 58.62 136.451 58.62ZM136.711 50.04C137.101 48.87 138.141 48.09 139.051 48.09C140.091 48.09 141.001 49.39 140.351 52.51C139.961 52.64 139.571 52.64 139.181 52.64C137.231 52.64 136.321 51.34 136.711 50.04ZM136.061 54.59L136.451 53.42C136.451 53.42 136.711 53.55 136.841 53.68C138.791 54.85 139.961 53.94 139.441 54.72C138.791 55.63 137.361 56.93 136.451 56.93C135.931 56.93 135.541 56.41 136.061 54.59ZM159.299 51.47C159.039 51.08 159.299 49.13 158.259 48.74C157.999 48.61 157.609 48.74 157.219 49C156.439 49.52 152.799 54.59 152.019 54.72C152.019 54.72 151.759 53.81 151.759 53.16C151.759 51.99 151.889 50.82 152.279 49C152.409 48.22 152.409 47.96 152.409 47.83C152.279 47.31 152.019 47.18 151.759 47.18C151.499 47.18 151.239 47.31 151.109 47.44C150.979 47.7 149.939 51.6 150.199 53.94C150.329 55.5 150.979 56.54 151.889 56.54C152.409 56.54 152.929 56.28 153.449 55.89C154.359 55.11 155.529 53.68 157.479 51.08C157.739 51.86 157.739 52.38 158.389 52.77C158.649 52.9 158.909 53.03 159.169 53.03C161.119 53.03 164.889 50.95 165.149 50.69C167.099 49.52 165.149 49 165.149 49C162.289 50.43 159.819 51.47 159.299 51.47Z" fill="black"/>
<path d="M11.18 54.72L11.1496 54.9682L11.1511 54.9683L11.18 54.72ZM30.81 67.46L30.5617 67.4309L30.5615 67.4324L30.81 67.46ZM27.69 96.84L27.6064 97.0756L27.647 97.09H27.69V96.84ZM45.11 27.29L45.3522 27.3523L45.354 27.3442L45.11 27.29ZM47.84 17.28L47.9518 17.5036L47.9881 17.4855L48.0168 17.4568L47.84 17.28ZM83.59 7.26999L83.5109 7.50716L83.5186 7.50971L83.5264 7.51176L83.59 7.26999ZM86.71 9.87L86.7891 9.6326L86.7787 9.62962L86.71 9.87ZM87.1 8.18L87.316 8.05402L87.3144 8.05137L87.1 8.18ZM73.97 6.75L73.9158 6.50594L73.9133 6.50651L73.97 6.75ZM5.85 36.13L5.6732 35.9532L5.6704 35.9561L5.85 36.13ZM3.38 42.11L3.16062 41.9901L3.15905 41.993L3.38 42.11ZM40.3 19.62L40.2122 19.3858L40.2061 19.3883L40.3 19.62ZM46.02 17.67L46.2558 17.7531L46.2572 17.7491L46.02 17.67ZM27.95 95.15L27.7015 95.1776L27.7648 95.7473L28.1393 95.3133L27.95 95.15ZM32.37 62.13L32.6165 62.0883L32.6162 62.0867L32.37 62.13ZM6.63 52.25L6.71431 52.0146L6.71287 52.0141L6.63 52.25ZM11.1511 54.9683C13.9568 55.2946 16.702 55.352 19.1886 55.4795C21.686 55.6075 23.9181 55.806 25.7434 56.4038C27.5585 56.9983 28.9542 57.9818 29.8045 59.6766C30.6608 61.3832 30.9816 63.8453 30.5617 67.4309L31.0583 67.4891C31.4834 63.8597 31.1705 61.2843 30.2514 59.4524C29.3264 57.6088 27.8053 56.553 25.8991 55.9287C24.0031 55.3077 21.7096 55.1081 19.2142 54.9802C16.708 54.8517 13.9932 54.7954 11.2089 54.4717L11.1511 54.9683ZM30.5615 67.4324C30.0428 72.1008 28.2623 79.0528 27.1033 85.0765C26.5261 88.0759 26.1037 90.8452 26.0811 92.9597C26.0698 94.0156 26.1577 94.9271 26.3867 95.6285C26.616 96.3309 27.0009 96.8608 27.6064 97.0756L27.7736 96.6044C27.3716 96.4617 27.0659 96.0978 26.862 95.4733C26.6578 94.8478 26.57 93.9993 26.5811 92.965C26.6032 90.8991 27.0176 88.1679 27.5942 85.171C28.7427 79.2022 30.5372 72.1792 31.0585 67.4876L30.5615 67.4324ZM27.69 97.09H28.08V96.59H27.69V97.09ZM28.08 97.09C28.5207 97.09 28.9307 96.883 29.3073 96.5373C29.6829 96.1923 30.0423 95.6944 30.3897 95.0717C31.085 93.8258 31.7599 92.0296 32.4246 89.8105C33.7551 85.3687 35.0612 79.1741 36.4018 72.1544C39.0852 58.1031 41.9097 40.7321 45.3521 27.3523L44.8679 27.2277C41.4203 40.6279 38.5898 58.0319 35.9107 72.0606C34.57 79.0809 33.268 85.2526 31.9457 89.667C31.284 91.876 30.6214 93.6305 29.9531 94.8281C29.6188 95.4272 29.29 95.8744 28.9691 96.169C28.6491 96.4628 28.3543 96.59 28.08 96.59V97.09ZM45.354 27.3442C45.4828 26.7646 46.0992 24.299 46.7167 21.9588C47.0253 20.7894 47.3334 19.6542 47.5804 18.8041C47.704 18.3785 47.8115 18.0273 47.8955 17.7798C47.9377 17.6553 47.9724 17.5617 47.9991 17.4995C48.0127 17.4677 48.0218 17.4501 48.0262 17.4424C48.0285 17.4385 48.0266 17.4423 48.0205 17.4499C48.0178 17.4532 47.9953 17.4818 47.9518 17.5036L47.7282 17.0564C47.6766 17.0822 47.645 17.1191 47.6323 17.1348C47.6162 17.1546 47.6034 17.1748 47.5939 17.1912C47.5747 17.2242 47.5565 17.263 47.5396 17.3025C47.5052 17.3827 47.4656 17.4907 47.422 17.6191C47.3343 17.8774 47.2244 18.2371 47.1002 18.6646C46.8516 19.5207 46.5422 20.6606 46.2333 21.8312C45.6158 24.171 44.9972 26.6454 44.866 27.2358L45.354 27.3442ZM48.0168 17.4568C48.0379 17.4357 48.0664 17.4125 48.1131 17.3748C48.1551 17.3407 48.2094 17.2966 48.2605 17.2455C48.3642 17.1418 48.48 16.9843 48.48 16.76H47.98C47.98 16.7957 47.9658 16.8332 47.907 16.892C47.8768 16.9221 47.8418 16.9511 47.7985 16.9862C47.7598 17.0175 47.7071 17.0593 47.6632 17.1032L48.0168 17.4568ZM48.48 16.76C48.48 16.8366 48.4442 16.8863 48.4353 16.8983C48.4226 16.9154 48.4115 16.9247 48.4103 16.9257C48.4072 16.9284 48.4118 16.9241 48.4316 16.9122C48.469 16.8897 48.5317 16.8568 48.6229 16.8134C48.8034 16.7273 49.0734 16.6103 49.4251 16.466C50.1273 16.1778 51.1423 15.7865 52.3891 15.3269C54.8822 14.408 58.2953 13.2189 61.9725 12.0418C65.65 10.8647 69.5887 9.70062 73.1338 8.83108C76.6853 7.95995 79.8203 7.38999 81.9 7.38999V6.88999C79.7547 6.88999 76.5685 7.47379 73.0147 8.34547C69.4544 9.21875 65.5038 10.3865 61.82 11.5656C58.1359 12.7449 54.716 13.9364 52.2162 14.8578C50.9666 15.3184 49.9453 15.7121 49.2353 16.0034C48.8809 16.1488 48.6008 16.27 48.4077 16.362C48.3122 16.4076 48.2321 16.4487 48.1736 16.4839C48.1454 16.5009 48.1138 16.5215 48.0863 16.5449C48.0729 16.5563 48.0527 16.5748 48.0339 16.6002C48.0189 16.6204 47.98 16.6773 47.98 16.76H48.48ZM81.9 7.38999C82.2267 7.38999 82.5444 7.39007 82.8286 7.40586C83.1164 7.42184 83.3489 7.45313 83.5109 7.50716L83.6691 7.03282C83.4412 6.95685 83.1536 6.92315 82.8564 6.90663C82.5556 6.88992 82.2233 6.88999 81.9 6.88999V7.38999ZM83.5264 7.51176C84.6938 7.81898 85.1982 8.36175 85.527 8.85492C85.612 8.98237 85.6858 9.10758 85.7588 9.23145C85.8304 9.35284 85.9032 9.47637 85.9805 9.58787C86.1364 9.81291 86.3328 10.0222 86.6413 10.1104L86.7787 9.62962C86.6322 9.58775 86.5198 9.48833 86.3914 9.30306C86.3265 9.2094 86.2632 9.10238 86.1895 8.97748C86.1173 8.85506 86.0368 8.71824 85.943 8.57757C85.5568 7.99823 84.9562 7.37101 83.6536 7.02822L83.5264 7.51176ZM86.631 10.1072C86.7744 10.155 86.9522 10.1643 87.1222 10.1231C87.2955 10.0812 87.4773 9.98231 87.6005 9.79742C87.8494 9.42412 87.7785 8.84693 87.3159 8.05403L86.8841 8.30597C87.3315 9.07306 87.2606 9.40587 87.1845 9.52007C87.1452 9.57893 87.0833 9.61814 87.0047 9.63716C86.9228 9.65697 86.8406 9.65002 86.7891 9.63283L86.631 10.1072ZM87.3144 8.05137C86.078 5.99082 83.8869 5.33 81.38 5.33V5.83C83.8131 5.83 85.782 6.46918 86.8856 8.30862L87.3144 8.05137ZM81.38 5.33C78.8757 5.33 76.2431 5.98877 73.9158 6.50595L74.0242 6.99405C76.3769 6.47123 78.9443 5.83 81.38 5.83V5.33ZM73.9133 6.50651C66.3569 8.26533 52.0767 12.8526 38.3056 18.3805C31.419 21.1449 24.6548 24.1465 18.9189 27.1498C13.1886 30.1501 8.46394 33.1625 5.67322 35.9532L6.02678 36.3068C8.76107 33.5725 13.4289 30.5887 19.1508 27.5927C24.867 24.5998 31.6147 21.6051 38.4919 18.8445C52.2484 13.3224 66.5031 8.74466 74.0267 6.99349L73.9133 6.50651ZM5.6704 35.9561C1.68527 40.0719 -0.238265 44.4115 0.519249 47.9634C1.28353 51.547 4.73627 54.1828 11.1496 54.9681L11.2104 54.4719C4.88373 53.6972 1.70647 51.133 1.00825 47.8591C0.303265 44.5535 2.08473 40.3781 6.0296 36.3039L5.6704 35.9561ZM3.59936 42.2299C6.22807 37.4213 11.633 33.355 18.3034 29.7195C24.9671 26.0877 32.8503 22.9082 40.3939 19.8517L40.2061 19.3883C32.6697 22.4418 24.7579 25.6323 18.0641 29.2805C11.377 32.925 5.86193 37.0487 3.16064 41.9901L3.59936 42.2299ZM40.3878 19.8541C43.5174 18.6805 44.9667 18.1004 45.6346 17.856C45.8008 17.7952 45.9091 17.7588 45.9788 17.7397C46.014 17.73 46.0312 17.7271 46.0366 17.7265C46.0502 17.7249 46.0119 17.7331 45.9601 17.7109C45.9282 17.6972 45.8918 17.6722 45.864 17.6313C45.8369 17.5916 45.8283 17.5523 45.826 17.5255C45.8224 17.4822 45.8344 17.4545 45.8303 17.4668C45.8281 17.4735 45.8242 17.4829 45.8141 17.5078C45.8055 17.529 45.7937 17.5583 45.7828 17.5909L46.2572 17.7491C46.2625 17.7329 46.269 17.7165 46.2773 17.696C46.2842 17.6792 46.296 17.6509 46.3047 17.6249C46.3115 17.6044 46.3297 17.5489 46.3243 17.4837C46.3211 17.446 46.3095 17.3972 46.2771 17.3496C46.2438 17.3009 46.1996 17.2696 46.1571 17.2513C46.084 17.22 46.0129 17.2259 45.9789 17.2298C45.9368 17.2347 45.8917 17.2451 45.8464 17.2575C45.7551 17.2826 45.6298 17.3254 45.4629 17.3865C44.7983 17.6296 43.3226 18.2195 40.2122 19.3859L40.3878 19.8541ZM45.7842 17.5869C42.5908 26.6458 39.499 44.3865 36.4954 60.6546C34.9922 68.7965 33.5104 76.5743 32.0476 82.73C31.3161 85.8081 30.5905 88.4754 29.8709 90.5774C29.1478 92.6896 28.4413 94.1979 27.7607 94.9867L28.1393 95.3133C28.8887 94.4446 29.6203 92.8532 30.344 90.7394C31.0711 88.6154 31.8009 85.9304 32.534 82.8456C34.0002 76.6757 35.4841 68.886 36.9871 60.7454C39.996 44.4485 43.0792 26.7642 46.2558 17.7531L45.7842 17.5869ZM28.1985 95.1224C27.975 93.1111 28.2217 90.5802 28.7042 87.766C29.1863 84.9548 29.8994 81.8832 30.5988 78.7927C31.2974 75.706 31.982 72.6015 32.402 69.7388C32.8216 66.8792 32.9806 64.24 32.6165 62.0883L32.1235 62.1717C32.4744 64.245 32.3246 66.8221 31.9073 69.6662C31.4905 72.5072 30.8101 75.594 30.1112 78.6823C29.4131 81.7668 28.6962 84.854 28.2114 87.6815C27.7271 90.5061 27.47 93.0939 27.7015 95.1776L28.1985 95.1224ZM32.6162 62.0867C32.0855 59.0685 30.7266 57.1054 28.8355 55.8271C26.9557 54.5565 24.5721 53.9777 22.0156 53.6755C19.4626 53.3737 16.6904 53.3442 14.0478 53.1968C11.3914 53.0486 8.85522 52.7815 6.71431 52.0146L6.54569 52.4854C8.75978 53.2785 11.3586 53.5476 14.02 53.696C16.6952 53.8452 19.4237 53.8726 21.9569 54.172C24.4866 54.4711 26.7749 55.0378 28.5555 56.2413C30.3246 57.4371 31.6145 59.2765 32.1238 62.1733L32.6162 62.0867ZM6.71287 52.0141C4.36564 51.1894 3.0408 49.8111 2.56421 48.1354C2.08433 46.448 2.44841 44.404 3.60095 42.227L3.15905 41.993C1.97159 44.236 1.55567 46.417 2.08329 48.2721C2.6142 50.1389 4.08436 51.6206 6.54713 52.4859L6.71287 52.0141ZM64.0118 2.45999L64.1823 2.64308L64.1886 2.63677L64.0118 2.45999ZM55.9518 21.31L56.1911 21.3824L56.1924 21.3779L55.9518 21.31ZM49.7118 47.57L49.8618 47.77L49.8653 47.7673L49.7118 47.57ZM49.8418 48.87L50.0896 48.9034L50.1032 48.8019L50.0418 48.72L49.8418 48.87ZM48.8018 56.93H48.5518V56.9608L48.5593 56.9906L48.8018 56.93ZM50.4918 57.32L50.6686 57.4968L50.6877 57.4777L50.7022 57.455L50.4918 57.32ZM56.0818 49.78L55.9699 49.5562L55.9604 49.5615L56.0818 49.78ZM55.9518 57.84L56.1943 57.7794L56.1906 57.7645L56.1851 57.7503L55.9518 57.84ZM63.7518 50.56L63.5438 50.4213L63.5352 50.4343L63.5282 50.4482L63.7518 50.56ZM62.8418 49L62.8626 48.7509L62.7156 48.7386L62.6338 48.8613L62.8418 49ZM57.5118 56.8L57.5909 57.0372L57.6077 57.0316L57.6236 57.0236L57.5118 56.8ZM57.7718 49.52L58.0206 49.4951L58.0193 49.483L58.0169 49.471L57.7718 49.52ZM57.1218 48.22L57.2986 48.0432L57.2699 48.0145L57.2336 47.9964L57.1218 48.22ZM56.0818 47.96V47.71H56.0705L56.0592 47.711L56.0818 47.96ZM51.0118 53.42V53.67H51.1728L51.2394 53.5234L51.0118 53.42ZM51.7918 47.7L51.5929 47.5485L51.5535 47.6002L51.5443 47.6646L51.7918 47.7ZM67.5218 4.02L67.2725 4.03917L67.2727 4.0412L67.5218 4.02ZM52.5718 42.89L52.8184 42.9311L52.8185 42.9303L52.5718 42.89ZM61.2818 10.39L61.051 10.2938L61.0502 10.2959L61.2818 10.39ZM65.7018 3.24L65.525 3.41677L65.5348 3.42657L65.5456 3.43522L65.7018 3.24ZM52.9618 43.02L53.1762 43.1486L53.177 43.1473L52.9618 43.02ZM52.4418 44.06V44.31H52.622L52.679 44.1391L52.4418 44.06ZM65.8318 1.3C65.2287 1.3 64.5185 1.59976 63.835 2.28322L64.1886 2.63677C64.8051 2.02023 65.3949 1.8 65.8318 1.8V1.3ZM63.8414 2.27702C62.8697 3.18174 61.9687 4.50937 61.1426 6.05529C60.3149 7.60403 59.5549 9.3863 58.8702 11.2122C57.5009 14.8636 56.4258 18.7087 55.7112 21.2421L56.1924 21.3779C56.9078 18.8413 57.9777 15.0164 59.3384 11.3878C60.0187 9.57369 60.7699 7.81346 61.5835 6.29095C62.3987 4.76562 63.2689 3.49324 64.1822 2.64297L63.8414 2.27702ZM55.7125 21.2376C52.7194 31.128 51.4495 37.4759 50.7815 41.4675C50.4452 43.4769 50.2669 44.8521 50.0934 45.8175C50.0075 46.2954 49.9266 46.6489 49.8349 46.9073C49.7427 47.1675 49.6495 47.3018 49.5583 47.3727L49.8653 47.7673C50.0666 47.6107 50.2009 47.3712 50.3062 47.0744C50.4121 46.7757 50.4987 46.3888 50.5855 45.9059C50.7573 44.9498 50.9446 43.5219 51.2746 41.55C51.9391 37.5791 53.2042 31.252 56.1911 21.3824L55.7125 21.2376ZM49.5618 47.37C49.409 47.4846 49.2932 47.6142 49.2281 47.766C49.1613 47.922 49.1576 48.0788 49.1919 48.2275C49.255 48.5005 49.4559 48.7721 49.6418 49.02L50.0418 48.72C49.8377 48.4479 49.7136 48.2645 49.6791 48.115C49.6647 48.0525 49.6692 48.0062 49.6877 47.963C49.7079 47.9158 49.7546 47.8504 49.8618 47.77L49.5618 47.37ZM49.594 48.8366C49.1391 52.216 48.879 54.1345 48.7326 55.2564C48.5874 56.3699 48.5518 56.7147 48.5518 56.93H49.0518C49.0518 56.7553 49.0812 56.4501 49.2284 55.3211C49.3746 54.2005 49.6345 52.284 50.0896 48.9034L49.594 48.8366ZM48.5593 56.9906C48.6305 57.2757 48.7441 57.5183 48.9175 57.6918C49.0975 57.8717 49.325 57.96 49.5818 57.96V57.46C49.4486 57.46 49.3511 57.4183 49.2711 57.3382C49.1845 57.2517 49.1031 57.1043 49.0443 56.8694L48.5593 56.9906ZM49.5818 57.96C49.9036 57.96 50.3586 57.8067 50.6686 57.4968L50.315 57.1432C50.105 57.3533 49.78 57.46 49.5818 57.46V57.96ZM50.4918 57.32C50.7022 57.455 50.7022 57.455 50.7023 57.4549C50.7023 57.4549 50.7023 57.4548 50.7024 57.4547C50.7025 57.4545 50.7027 57.4542 50.703 57.4538C50.7035 57.453 50.7043 57.4518 50.7053 57.4501C50.7074 57.4468 50.7106 57.4419 50.7148 57.4355C50.7231 57.4225 50.7355 57.4032 50.7518 57.378C50.7843 57.3276 50.8323 57.2534 50.8937 57.1588C51.0166 56.9696 51.1935 56.6984 51.4094 56.3709C51.8414 55.7158 52.4293 54.836 53.0535 53.9362C53.678 53.0359 54.337 52.1184 54.9114 51.3867C55.1988 51.0207 55.4626 50.7042 55.6888 50.4608C55.9213 50.2106 56.0949 50.0587 56.2032 49.9985L55.9604 49.5615C55.7761 49.6638 55.5558 49.8694 55.3225 50.1204C55.0831 50.3782 54.8097 50.7066 54.5181 51.078C53.9347 51.821 53.2693 52.7479 52.6426 53.6513C52.0155 54.5553 51.4253 55.4386 50.992 56.0956C50.7753 56.4243 50.5977 56.6964 50.4743 56.8865C50.4126 56.9816 50.3644 57.0561 50.3316 57.1069C50.3153 57.1323 50.3027 57.1518 50.2943 57.165C50.29 57.1715 50.2868 57.1765 50.2847 57.1799C50.2836 57.1816 50.2828 57.1828 50.2822 57.1837C50.2819 57.1841 50.2817 57.1844 50.2816 57.1847C50.2815 57.1848 50.2815 57.1849 50.2814 57.1849C50.2814 57.185 50.2814 57.185 50.4918 57.32ZM56.1936 50.0036C56.1529 50.024 56.0869 50.0405 56.013 50.0156C55.9456 49.9928 55.9092 49.9478 55.8943 49.9253C55.8687 49.8869 55.8669 49.8563 55.8695 49.8717C55.8723 49.8888 55.8753 49.9334 55.8742 50.0163C55.8721 50.1753 55.856 50.4174 55.8306 50.7264C55.7815 51.324 55.6934 52.2109 55.6213 53.1075C55.5481 54.0193 55.4865 54.9939 55.4845 55.8488C55.4824 56.6909 55.5371 57.4582 55.7185 57.9297L56.1851 57.7503C56.0415 57.3768 55.9824 56.6978 55.9845 55.85C55.9865 55.0149 56.0468 54.0557 56.1197 53.1475C56.1939 52.2241 56.2765 51.4047 56.3289 50.7674C56.3543 50.4589 56.3718 50.2012 56.3742 50.0231C56.3753 49.9374 56.3734 49.854 56.3626 49.7894C56.3584 49.7639 56.3475 49.7039 56.3106 49.6485C56.29 49.6175 56.2474 49.567 56.1731 49.5419C56.0923 49.5146 56.0188 49.532 55.97 49.5564L56.1936 50.0036ZM55.7093 57.9006C55.7849 58.203 55.9394 58.4801 56.1818 58.6821C56.426 58.8856 56.7442 59 57.1218 59V58.5C56.8494 58.5 56.6476 58.4194 56.5018 58.2979C56.3542 58.1749 56.2487 57.997 56.1943 57.7794L55.7093 57.9006ZM57.1218 59C57.4327 59 57.7543 58.8696 58.0671 58.674C58.3833 58.4763 58.7134 58.1975 59.0466 57.8673C59.7135 57.2067 60.4178 56.3159 61.0793 55.3848C62.4029 53.522 63.5795 51.4635 63.9754 50.6718L63.5282 50.4482C63.1441 51.2165 61.9807 53.253 60.6718 55.0952C60.0171 56.0166 59.332 56.8808 58.6948 57.5121C58.376 57.8278 58.0754 58.0792 57.802 58.2501C57.5252 58.4232 57.2984 58.5 57.1218 58.5V59ZM63.9598 50.6987C64.0943 50.497 64.213 50.2901 64.2841 50.0887C64.3549 49.8882 64.3878 49.6663 64.3125 49.453C64.2349 49.2332 64.0603 49.0723 63.8196 48.9617C63.583 48.8531 63.2661 48.7845 62.8626 48.7509L62.821 49.2491C63.1975 49.2805 63.4493 49.3419 63.6109 49.4161C63.7683 49.4883 63.8212 49.5631 63.841 49.6195C63.8633 49.6824 63.8637 49.7774 63.8126 49.9223C63.7618 50.0662 63.6693 50.233 63.5438 50.4213L63.9598 50.6987ZM62.6338 48.8613C62.2452 49.4442 61.0958 51.3149 59.967 53.0565C59.3989 53.9331 58.8329 54.782 58.3613 55.4349C58.1253 55.7617 57.9155 56.0358 57.7425 56.2387C57.656 56.3402 57.5812 56.4208 57.519 56.4801C57.4533 56.5429 57.4146 56.5691 57.4 56.5764L57.6236 57.0236C57.7065 56.9822 57.7887 56.9139 57.8642 56.8419C57.9433 56.7664 58.0303 56.6718 58.123 56.5631C58.3086 56.3454 58.5274 56.059 58.7667 55.7276C59.2457 55.0643 59.8172 54.2069 60.3866 53.3285C61.5328 51.5601 62.6584 49.7258 63.0498 49.1387L62.6338 48.8613ZM57.4327 56.5628C57.5013 56.54 57.5775 56.5543 57.6325 56.5973C57.654 56.6141 57.6667 56.6309 57.673 56.6404C57.6794 56.6501 57.6823 56.6569 57.6828 56.6581C57.6835 56.6598 57.6805 56.6527 57.6764 56.632C57.6725 56.6125 57.6685 56.5861 57.665 56.5521C57.6506 56.4124 57.648 56.1932 57.6561 55.9072C57.6721 55.3395 57.7285 54.5534 57.7935 53.7156C57.8584 52.8808 57.9318 51.9961 57.9807 51.2404C58.029 50.4924 58.0555 49.8447 58.0206 49.4951L57.523 49.5449C57.5531 49.8453 57.5308 50.4488 57.4817 51.2081C57.4331 51.9595 57.3602 52.838 57.295 53.6769C57.2301 54.5128 57.1727 55.3111 57.1563 55.8931C57.1481 56.182 57.1496 56.429 57.1677 56.6035C57.1762 56.6864 57.1905 56.7765 57.221 56.8498C57.2355 56.8849 57.2651 56.9447 57.3247 56.9912C57.3996 57.0498 57.4979 57.0681 57.5909 57.0372L57.4327 56.5628ZM58.0169 49.471C57.8771 48.7717 57.5928 48.3375 57.2986 48.0432L56.945 48.3968C57.1707 48.6225 57.4065 48.9683 57.5267 49.569L58.0169 49.471ZM57.2336 47.9964C57.0805 47.9198 56.8658 47.8495 56.6624 47.7987C56.4607 47.7483 56.2424 47.71 56.0818 47.71V48.21C56.1812 48.21 56.3529 48.2367 56.5412 48.2838C56.7278 48.3304 56.9031 48.3902 57.01 48.4436L57.2336 47.9964ZM56.0592 47.711C55.832 47.7317 55.594 47.8243 55.3588 47.9546C55.1213 48.0863 54.8717 48.2649 54.6185 48.4742C54.1121 48.8927 53.5737 49.4484 53.0649 50.0394C52.0511 51.2166 51.1235 52.57 50.7842 53.3165L51.2394 53.5234C51.5501 52.84 52.4425 51.5284 53.4437 50.3656C53.9424 49.7866 54.4603 49.2536 54.937 48.8596C55.1754 48.6626 55.3991 48.504 55.6012 48.3919C55.8058 48.2785 55.9741 48.2208 56.1044 48.209L56.0592 47.711ZM51.0118 53.17C51.1241 53.17 51.1898 53.2446 51.2134 53.2896C51.2309 53.323 51.2312 53.3468 51.2301 53.3361C51.2286 53.3206 51.2284 53.2775 51.2364 53.1885C51.2519 53.0166 51.2912 52.736 51.3565 52.3036C51.4862 51.4442 51.7141 50.0116 52.0393 47.7354L51.5443 47.6646C51.2195 49.9384 50.9924 51.3658 50.8621 52.2289C50.7974 52.6577 50.7555 52.954 50.7384 53.1437C50.7302 53.2354 50.726 53.3193 50.7326 53.3856C50.7356 53.4158 50.7429 53.4691 50.7706 53.5219C50.8044 53.5863 50.8832 53.67 51.0118 53.67V53.17ZM51.9907 47.8515C56.1766 42.3574 60.2495 32.9323 63.2087 24.136C64.6897 19.7337 65.8947 15.4802 66.6972 11.9423C67.497 8.41595 67.9046 5.56964 67.7709 3.9988L67.2727 4.0412C67.399 5.52535 67.0103 8.30155 66.2096 11.8317C65.4114 15.3505 64.2114 19.5875 62.7348 23.9765C59.7791 32.7627 55.727 42.1226 51.5929 47.5485L51.9907 47.8515ZM67.7711 4.00082C67.7043 3.13229 67.5021 2.46334 67.1722 2.00517C66.8343 1.53585 66.3699 1.3 65.8318 1.3V1.8C66.2037 1.8 66.5193 1.95414 66.7664 2.29732C67.0215 2.65165 67.2093 3.21771 67.2725 4.03917L67.7711 4.00082ZM52.8185 42.9303C54.8954 30.2096 59.8301 14.6276 61.5134 10.4841L61.0502 10.2959C59.3535 14.4724 54.4082 30.0904 52.3251 42.8497L52.8185 42.9303ZM61.5126 10.4862C62.4816 8.16037 63.514 6.32243 64.3331 5.1018C64.7434 4.49042 65.0965 4.03935 65.3581 3.76036C65.4906 3.61896 65.5902 3.53203 65.6551 3.48918C65.6891 3.46666 65.6973 3.46734 65.6848 3.47012C65.6688 3.47366 65.5915 3.48329 65.525 3.41677L65.8786 3.06322C65.7796 2.9642 65.6545 2.9647 65.5767 2.98195C65.5022 2.99844 65.4344 3.03568 65.3794 3.07206C65.2659 3.14702 65.135 3.26728 64.9933 3.41839C64.7064 3.7244 64.3364 4.19957 63.918 4.82319C63.0796 6.07256 62.032 7.93963 61.051 10.2938L61.5126 10.4862ZM65.5456 3.43522C65.5929 3.47306 65.6646 3.58765 65.7125 3.85507C65.7582 4.11001 65.7741 4.4565 65.7577 4.89187C65.7249 5.7609 65.565 6.94264 65.2937 8.36681C64.7517 11.2126 63.7713 14.9934 62.5054 19.1077C59.9724 27.3399 56.3067 36.8729 52.7466 42.8927L53.177 43.1473C56.7669 37.0771 60.4462 27.5001 62.9832 19.2548C64.2523 15.1303 65.2382 11.3305 65.7849 8.46037C66.058 7.02657 66.2231 5.81652 66.2573 4.91074C66.2744 4.45871 66.2593 4.07205 66.2047 3.76693C66.1523 3.4743 66.0544 3.20194 65.858 3.04478L65.5456 3.43522ZM52.7474 42.8914C52.5474 43.2248 52.413 43.4932 52.328 43.6803C52.2854 43.7738 52.2553 43.847 52.2354 43.8978C52.2255 43.9232 52.2181 43.943 52.2131 43.9569C52.2105 43.9639 52.2086 43.9694 52.2072 43.9734C52.2065 43.9754 52.2059 43.9771 52.2055 43.9783C52.2053 43.9789 52.2051 43.9795 52.205 43.9799C52.2049 43.9801 52.2048 43.9803 52.2048 43.9805C52.2047 43.9806 52.2047 43.9807 52.2047 43.9807C52.2047 43.9808 52.2047 43.9808 52.2047 43.9808C52.2046 43.9809 52.2046 43.9809 52.4418 44.06C52.679 44.1391 52.679 44.1391 52.6789 44.1391C52.6789 44.1392 52.6789 44.1392 52.6789 44.1392C52.6789 44.1393 52.6789 44.1393 52.6789 44.1394C52.6788 44.1394 52.6788 44.1395 52.6788 44.1395C52.6788 44.1396 52.6788 44.1395 52.6789 44.1394C52.6789 44.1391 52.6792 44.1385 52.6795 44.1375C52.6802 44.1355 52.6814 44.132 52.6832 44.127C52.6868 44.1171 52.6927 44.1013 52.701 44.08C52.7177 44.0374 52.7444 43.9724 52.7831 43.8872C52.8606 43.7168 52.9862 43.4652 53.1762 43.1486L52.7474 42.8914ZM52.4418 43.81C52.4999 43.81 52.5667 43.8379 52.6087 43.8972C52.6385 43.9392 52.6388 43.9741 52.6381 43.9661C52.637 43.9525 52.6393 43.9083 52.6559 43.8086C52.6714 43.7154 52.6948 43.5986 52.7238 43.4496C52.7523 43.3026 52.7853 43.1294 52.8184 42.9311L52.3252 42.8489C52.2932 43.0406 52.2612 43.2087 52.233 43.3542C52.2051 43.4977 52.1797 43.6246 52.1627 43.7264C52.1468 43.8217 52.1329 43.9237 52.1398 44.0076C52.1432 44.0484 52.1537 44.1199 52.2007 44.1862C52.26 44.2699 52.3512 44.31 52.4418 44.31V43.81ZM80.341 49L80.39 48.7549L80.2737 48.7316L80.1821 48.807L80.341 49ZM72.021 52.51L71.7729 52.479L71.7725 52.4824L72.021 52.51ZM72.801 48.09L72.5638 48.1691L72.5725 48.1951L72.5866 48.2186L72.801 48.09ZM65.521 54.2L65.3924 53.9856L65.3838 53.9908L65.3757 53.9966L65.521 54.2ZM67.991 49L68.1028 48.7764L67.9731 48.7115L67.8523 48.792L67.991 49ZM68.771 47.96L68.5942 48.1368L68.604 48.1466L68.6148 48.1552L68.771 47.96ZM63.701 54.33L63.4514 54.3447L63.4521 54.3551L63.4535 54.3654L63.701 54.33ZM66.821 55.24L66.9772 55.4352L66.9793 55.4335L66.821 55.24ZM70.721 50.95L70.9636 51.0106L70.525 50.7948L70.721 50.95ZM80.991 50.43L80.8408 50.2297L80.831 50.2379L80.991 50.43ZM80.1821 48.807C79.0646 49.7273 77.6181 51.0141 76.2389 52.085C75.5517 52.6186 74.8916 53.0902 74.3107 53.4272C73.7185 53.7708 73.249 53.95 72.931 53.95V54.45C73.393 54.45 73.9635 54.2067 74.5616 53.8597C75.171 53.5061 75.8516 53.0189 76.5456 52.48C77.9289 51.4059 79.4074 50.0927 80.4999 49.193L80.1821 48.807ZM72.931 53.95C72.6826 53.95 72.5108 53.8571 72.399 53.667C72.2761 53.4581 72.2071 53.0993 72.2695 52.5376L71.7725 52.4824C71.705 53.0907 71.7659 53.5769 71.968 53.9205C72.1812 54.2829 72.5294 54.45 72.931 54.45V53.95ZM72.2691 52.541C72.3962 51.5238 72.6819 50.6035 72.8957 49.8304C73.0011 49.4493 73.0913 49.0957 73.1284 48.7927C73.1646 48.4967 73.1575 48.1982 73.0154 47.9614L72.5866 48.2186C72.6396 48.3068 72.6649 48.4633 72.6321 48.732C72.6001 48.9937 72.5197 49.3144 72.4138 49.6971C72.2051 50.4515 71.9058 51.4162 71.7729 52.479L72.2691 52.541ZM73.0382 48.0109C72.9596 47.7753 72.8343 47.5976 72.6701 47.4803C72.5064 47.3634 72.3231 47.32 72.151 47.32V47.82C72.239 47.82 72.3156 47.8416 72.3795 47.8872C72.4427 47.9324 72.5124 48.0147 72.5638 48.1691L73.0382 48.0109ZM72.151 47.32C71.8894 47.32 71.6328 47.4254 71.3904 47.5802C71.1461 47.7361 70.8966 47.9548 70.6444 48.2112C70.1406 48.7233 69.5952 49.4181 69.0287 50.1465C68.4582 50.88 67.8627 51.6523 67.2481 52.3392C66.6323 53.0275 66.0102 53.6149 65.3924 53.9856L65.6496 54.4144C66.3318 54.0051 66.9935 53.3737 67.6208 52.6726C68.2493 51.9702 68.8563 51.1825 69.4234 50.4535C69.9943 49.7194 70.5214 49.0492 71.0008 48.5619C71.2401 48.3186 71.4598 48.1291 71.6594 48.0016C71.8608 47.873 72.0226 47.82 72.151 47.82V47.32ZM65.3757 53.9966C65.334 54.0263 65.3333 54.015 65.3642 54.0133C65.4182 54.0105 65.4687 54.0408 65.4924 54.0756C65.505 54.0941 65.4972 54.0947 65.4928 54.0489C65.4889 54.0083 65.4894 53.9493 65.4975 53.8701C65.5306 53.5484 65.6753 53.0249 65.9156 52.4241C66.1542 51.8276 66.4799 51.1727 66.8633 50.5897C67.2487 50.0036 67.6818 49.5066 68.1297 49.208L67.8523 48.792C67.3252 49.1434 66.8483 49.7026 66.4456 50.315C66.0408 50.9304 65.7003 51.6161 65.4514 52.2384C65.2042 52.8563 65.0402 53.4297 65.0001 53.819C64.99 53.9175 64.9869 54.0121 64.9951 54.0968C65.0028 54.1765 65.0226 54.2742 65.0794 54.3574C65.1473 54.4569 65.2584 54.5196 65.3906 54.5126C65.4995 54.5069 65.5943 54.4549 65.6663 54.4034L65.3757 53.9966ZM67.8792 49.2236C67.937 49.2525 67.9883 49.2818 68.0408 49.312C68.0911 49.3411 68.1473 49.3739 68.2042 49.4024C68.3262 49.4634 68.4622 49.51 68.641 49.51V49.01C68.5598 49.01 68.5008 48.9916 68.4278 48.9551C68.3873 48.9349 68.3459 48.9108 68.2906 48.8789C68.2374 48.8482 68.175 48.8125 68.1028 48.7764L67.8792 49.2236ZM68.641 49.51C69.045 49.51 69.3242 49.2044 69.3905 48.8511C69.4582 48.49 69.3158 48.0756 68.9272 47.7648L68.6148 48.1552C68.8763 48.3643 68.9288 48.6 68.899 48.7589C68.8678 48.9256 68.7571 49.01 68.641 49.01V49.51ZM68.9478 47.7832C68.6101 47.4455 68.2547 47.45 67.991 47.45V47.95C68.2473 47.95 68.412 47.9545 68.5942 48.1368L68.9478 47.7832ZM67.991 47.45C67.4418 47.45 66.879 47.7778 66.3672 48.2395C65.8473 48.7084 65.3415 49.35 64.9026 50.054C64.4631 50.7589 64.0851 51.5352 63.8246 52.2791C63.5655 53.019 63.4162 53.7453 63.4514 54.3447L63.9506 54.3153C63.9208 53.8096 64.0478 53.1547 64.2965 52.4443C64.5438 51.738 64.9052 50.9948 65.3269 50.3185C65.7492 49.6412 66.2266 49.0397 66.7021 48.6108C67.1855 48.1747 67.6303 47.95 67.991 47.95V47.45ZM63.4535 54.3654C63.5922 55.336 64.1724 56.14 65.131 56.14V55.64C64.5296 55.64 64.0698 55.144 63.9485 54.2946L63.4535 54.3654ZM65.131 56.14C65.7085 56.14 66.2834 55.9903 66.9772 55.4352L66.6648 55.0448C66.0586 55.5297 65.5936 55.64 65.131 55.64V56.14ZM66.9793 55.4335C67.7136 54.8328 68.7017 53.7442 69.4968 52.8192C69.8967 52.3541 70.2515 51.9259 70.5063 51.6139C70.6338 51.458 70.7363 51.3309 70.807 51.2429C70.8424 51.1988 70.8698 51.1645 70.8884 51.1411C70.8977 51.1295 70.9048 51.1205 70.9097 51.1145C70.912 51.1114 70.9139 51.1091 70.9151 51.1076C70.9157 51.1068 70.9162 51.1062 70.9165 51.1058C70.9167 51.1056 70.9168 51.1055 70.9169 51.1054C70.9169 51.1053 70.917 51.1053 70.917 51.1052C70.917 51.1052 70.917 51.1052 70.721 50.95C70.525 50.7948 70.525 50.7948 70.525 50.7948C70.525 50.7949 70.525 50.7949 70.5249 50.7949C70.5249 50.795 70.5248 50.7951 70.5246 50.7953C70.5243 50.7957 70.5239 50.7962 70.5233 50.7969C70.5222 50.7984 70.5204 50.8006 70.5181 50.8035C70.5135 50.8093 70.5066 50.8181 70.4974 50.8295C70.4792 50.8524 70.4521 50.8863 70.4172 50.9298C70.3472 51.0169 70.2456 51.1428 70.1191 51.2976C69.8662 51.6072 69.5141 52.0321 69.1177 52.4933C68.3204 53.4208 67.3585 54.4772 66.6627 55.0465L66.9793 55.4335ZM70.721 50.95C70.4785 50.8894 70.4785 50.8895 70.4784 50.8896C70.4784 50.8896 70.4784 50.8898 70.4783 50.8899C70.4783 50.8902 70.4782 50.8905 70.4781 50.8909C70.4779 50.8917 70.4777 50.8927 70.4773 50.8941C70.4767 50.8968 70.4757 50.9006 70.4746 50.9055C70.4722 50.9152 70.4689 50.9293 70.4648 50.9475C70.4567 50.9837 70.4453 51.0361 70.4321 51.1024C70.4058 51.2349 70.3724 51.4233 70.3431 51.6491C70.2848 52.0988 70.242 52.7055 70.31 53.3176C70.3777 53.9267 70.5579 54.567 70.9677 55.0588C71.3864 55.5612 72.021 55.88 72.931 55.88V55.38C72.151 55.38 71.6644 55.1138 71.3518 54.7387C71.0304 54.353 70.8693 53.8233 70.807 53.2624C70.745 52.7045 70.7835 52.1412 70.8389 51.7134C70.8665 51.5004 70.8981 51.3232 70.9226 51.1997C70.9348 51.1381 70.9453 51.0899 70.9526 51.0576C70.9562 51.0415 70.9591 51.0293 70.961 51.0214C70.9619 51.0174 70.9626 51.0145 70.963 51.0127C70.9633 51.0118 70.9634 51.0112 70.9635 51.0108C70.9635 51.0107 70.9636 51.0106 70.9636 51.0105C70.9636 51.0105 70.9636 51.0105 70.9636 51.0105C70.9636 51.0106 70.9636 51.0106 70.721 50.95ZM72.931 55.88C74.0509 55.88 75.1443 55.3544 76.4226 54.4531C77.701 53.5516 79.2088 52.2406 81.1511 50.6221L80.831 50.2379C78.8732 51.8694 77.3911 53.1584 76.1344 54.0444C74.8777 54.9306 73.8911 55.38 72.931 55.38V55.88ZM81.141 50.63C81.4428 50.4037 81.6887 50.0207 81.5919 49.609C81.4925 49.1867 81.0714 48.8911 80.39 48.7549L80.292 49.2451C80.9106 49.3689 81.0745 49.5933 81.1052 49.7235C81.1383 49.8643 81.0592 50.0663 80.841 50.23L81.141 50.63ZM89.7467 58.62L89.9235 58.7968L89.941 58.7793L89.9547 58.7587L89.7467 58.62ZM91.1767 49.91L91.4206 49.965L91.4208 49.9642L91.1767 49.91ZM90.3967 46.79L90.3775 46.5407L90.376 46.5409L90.3967 46.79ZM84.4167 52.25H84.1667V52.309L84.1931 52.3618L84.4167 52.25ZM85.1967 49.13L84.9573 49.0582L85.1967 49.13ZM85.1967 47.44L85.0199 47.6168L85.0374 47.6343L85.058 47.648L85.1967 47.44ZM84.1567 47.57L83.9331 47.4582L83.9289 47.4666L83.9253 47.4753L84.1567 47.57ZM82.9867 54.46L83.1635 54.2832L82.9867 54.46ZM86.7567 52.25L86.5686 52.0854L86.5624 52.0925L86.5567 52.1L86.7567 52.25ZM88.3167 56.54L88.0681 56.5131L88.0676 56.5192L88.3167 56.54ZM88.7067 58.88L88.5949 59.1036L88.6477 59.13H88.7067V58.88ZM89.9547 58.7587C90.0197 58.6613 90.0728 58.5756 90.1057 58.4896C90.143 58.392 90.1496 58.3073 90.1469 58.2203C90.142 58.0599 90.1106 57.8972 90.1266 57.4425C90.1582 56.5405 90.3814 54.5766 91.4206 49.965L90.9328 49.855C89.8921 54.4734 89.6602 56.4745 89.6269 57.425C89.6103 57.8965 89.644 58.132 89.6471 58.2357C89.6485 58.2807 89.645 58.2945 89.6386 58.3111C89.6278 58.3394 89.6038 58.3837 89.5387 58.4813L89.9547 58.7587ZM91.4208 49.9642C91.545 49.4052 91.7851 48.5464 91.7679 47.8563C91.7592 47.5081 91.6855 47.1524 91.4553 46.8924C91.2147 46.6207 90.8504 46.5044 90.3775 46.5407L90.4159 47.0393C90.788 47.0106 90.9762 47.1056 91.0809 47.2239C91.196 47.3538 91.2605 47.5669 91.268 47.8687C91.2833 48.4786 91.0684 49.2448 90.9327 49.8558L91.4208 49.9642ZM90.376 46.5409C90.1211 46.5621 89.8425 46.6891 89.5659 46.8599C89.2833 47.0343 88.9761 47.2717 88.6591 47.5453C88.0249 48.0928 87.3308 48.8037 86.6873 49.4961C86.0448 50.1874 85.4422 50.8718 85.0015 51.3567C84.7788 51.6018 84.5995 51.7937 84.4734 51.9155C84.4083 51.9784 84.3674 52.0127 84.3468 52.0267C84.3326 52.0365 84.3474 52.0231 84.381 52.0149C84.3992 52.0104 84.4443 52.0019 84.4997 52.0191C84.5651 52.0393 84.6139 52.0853 84.6403 52.1382L84.1931 52.3618C84.2236 52.4228 84.2785 52.4741 84.3519 52.4968C84.4155 52.5164 84.4706 52.5078 84.5008 52.5003C84.5583 52.4861 84.6047 52.4561 84.6295 52.4392C84.6868 52.3999 84.753 52.3406 84.8207 52.2752C84.9601 52.1406 85.1495 51.9374 85.3716 51.693C85.8206 51.1988 86.4124 50.5263 87.0536 49.8364C87.6939 49.1475 88.3729 48.4529 88.9859 47.9238C89.2925 47.6591 89.5774 47.4404 89.8286 47.2853C90.0856 47.1266 90.2823 47.0504 90.4175 47.0391L90.376 46.5409ZM84.6667 52.25C84.6667 52.2621 84.667 52.2476 84.68 52.1778C84.6908 52.1199 84.707 52.0408 84.7281 51.9434C84.7702 51.7489 84.8306 51.487 84.9034 51.1878C85.049 50.5892 85.2429 49.8462 85.4362 49.2018L84.9573 49.0582C84.7606 49.7138 84.5644 50.4658 84.4175 51.0697C84.3441 51.3717 84.2826 51.6379 84.2394 51.8376C84.2178 51.9372 84.2005 52.0215 84.1885 52.086C84.1787 52.1387 84.1667 52.2054 84.1667 52.25H84.6667ZM85.4362 49.2018C85.5336 48.8772 85.6084 48.6196 85.6589 48.4135C85.7088 48.21 85.7392 48.0399 85.7392 47.895C85.7392 47.7414 85.705 47.6067 85.6203 47.4868C85.5428 47.377 85.4354 47.2986 85.3354 47.232L85.058 47.648C85.1531 47.7114 85.1918 47.7468 85.2119 47.7751C85.2247 47.7933 85.2392 47.8211 85.2392 47.895C85.2392 47.9776 85.2209 48.1 85.1733 48.2946C85.1262 48.4866 85.0549 48.7328 84.9573 49.0582L85.4362 49.2018ZM85.3735 47.2632C85.3118 47.2015 85.2337 47.1227 85.1517 47.0612C85.0724 47.0017 84.9533 46.93 84.8067 46.93V47.43C84.7901 47.43 84.8011 47.4233 84.8517 47.4612C84.8997 47.4973 84.9517 47.5485 85.0199 47.6168L85.3735 47.2632ZM84.8067 46.93C84.4659 46.93 84.1113 47.1018 83.9331 47.4582L84.3803 47.6818C84.4621 47.5182 84.6275 47.43 84.8067 47.43V46.93ZM84.1567 47.57C83.9253 47.4753 83.9253 47.4754 83.9253 47.4755C83.9253 47.4755 83.9252 47.4756 83.9252 47.4757C83.9251 47.4759 83.925 47.4762 83.9248 47.4766C83.9245 47.4774 83.924 47.4785 83.9235 47.4799C83.9223 47.4828 83.9205 47.4871 83.9183 47.4927C83.9138 47.5039 83.9071 47.5203 83.8986 47.5418C83.8814 47.5846 83.8566 47.6474 83.8254 47.7275C83.7632 47.8877 83.6756 48.1175 83.5743 48.3968C83.3719 48.955 83.1138 49.7129 82.8921 50.5092C82.6711 51.3032 82.4834 52.1459 82.4267 52.8703C82.3984 53.2324 82.4019 53.575 82.455 53.872C82.5077 54.1667 82.6135 54.4403 82.8099 54.6368L83.1635 54.2832C83.0674 54.1872 82.9904 54.0261 82.9472 53.784C82.9043 53.5443 82.8987 53.248 82.9252 52.9093C82.9782 52.2322 83.1561 51.4255 83.3738 50.6433C83.5909 49.8633 83.8446 49.1182 84.0444 48.5673C84.1442 48.292 84.2304 48.0658 84.2915 47.9087C84.322 47.8301 84.3463 47.7688 84.3629 47.7273C84.3712 47.7065 84.3775 47.6907 84.3818 47.6802C84.3839 47.6749 84.3855 47.671 84.3866 47.6684C84.3871 47.6671 84.3875 47.6661 84.3878 47.6655C84.3879 47.6652 84.388 47.6649 84.388 47.6648C84.3881 47.6647 84.3881 47.6647 84.3881 47.6647C84.3881 47.6646 84.3881 47.6647 84.1567 47.57ZM82.8099 54.6368C83.0972 54.924 83.417 55.1 83.7667 55.1V54.6C83.5964 54.6 83.3962 54.516 83.1635 54.2832L82.8099 54.6368ZM83.7667 55.1C84.0615 55.1 84.3607 54.9756 84.6399 54.8025C84.9228 54.627 85.2094 54.3862 85.4845 54.1195C86.0349 53.5857 86.5642 52.9233 86.9567 52.4L86.5567 52.1C86.1692 52.6167 85.6585 53.2543 85.1364 53.7605C84.8753 54.0138 84.6175 54.228 84.3764 54.3775C84.1315 54.5294 83.9269 54.6 83.7667 54.6V55.1ZM86.9449 52.4146C87.8561 51.3732 88.5041 50.628 88.9413 50.1422C89.1603 49.8989 89.3225 49.725 89.4365 49.613C89.4941 49.5564 89.5342 49.5207 89.5599 49.5007C89.5731 49.4905 89.5769 49.4888 89.5733 49.4908C89.5713 49.4919 89.5638 49.4958 89.5518 49.4998C89.5406 49.5035 89.5177 49.51 89.4867 49.51V49.01C89.4152 49.01 89.3596 49.0379 89.336 49.0507C89.3058 49.067 89.2777 49.0868 89.2535 49.1056C89.2047 49.1435 89.1483 49.1952 89.086 49.2564C88.9603 49.38 88.7894 49.5636 88.5696 49.8078C88.1293 50.297 87.4774 51.0468 86.5686 52.0854L86.9449 52.4146ZM89.4867 49.51C89.4321 49.51 89.374 49.482 89.3397 49.4337C89.3167 49.4012 89.3188 49.3794 89.321 49.401C89.3252 49.4416 89.3202 49.5277 89.2949 49.6803C89.2457 49.9774 89.1389 50.4245 88.9992 51.041C88.7219 52.264 88.3296 54.0945 88.0682 56.5131L88.5653 56.5669C88.8238 54.1755 89.2115 52.366 89.4868 51.1515C89.6233 50.5493 89.7358 50.0782 89.7882 49.7619C89.8137 49.6077 89.83 49.4633 89.8185 49.3501C89.8128 49.2947 89.7978 49.2152 89.7474 49.1442C89.6857 49.0573 89.5901 49.01 89.4867 49.01V49.51ZM88.0676 56.5192C88.0033 57.2901 87.967 57.8407 88.0203 58.2313C88.0477 58.4321 88.1006 58.6093 88.1983 58.76C88.2981 58.9139 88.4329 59.0226 88.5949 59.1036L88.8185 58.6564C88.7205 58.6074 88.6604 58.5536 88.6179 58.4881C88.5734 58.4194 88.537 58.3204 88.5157 58.1637C88.4714 57.8393 88.5001 57.3499 88.5659 56.5608L88.0676 56.5192ZM88.7067 59.13H88.9667V58.63H88.7067V59.13ZM88.9667 59.13C89.4103 59.13 89.7383 58.982 89.9235 58.7968L89.5699 58.4432C89.4951 58.518 89.3032 58.63 88.9667 58.63V59.13ZM110.167 1.28999L110.303 1.49962L110.306 1.49801L110.167 1.28999ZM97.5569 47.05L97.7337 47.2268L97.7512 47.2093L97.7649 47.1887L97.5569 47.05ZM97.4269 47.7L97.672 47.651L97.6655 47.6181L97.6505 47.5882L97.4269 47.7ZM96.2569 60.05L96.4805 59.9382L96.4769 59.931L96.4728 59.924L96.2569 60.05ZM97.8169 59.4L97.6401 59.5768L97.8169 59.4ZM97.9469 56.28L97.7701 56.4568L97.8433 56.53H97.9469V56.28ZM109.647 50.82L109.508 50.612L109.506 50.6137L109.647 50.82ZM109.257 49L109.313 48.7564L109.205 48.7314L109.114 48.7952L109.257 49ZM98.3369 54.59L98.5136 54.4132L98.4919 54.3915L98.4655 54.3756L98.3369 54.59ZM101.977 49L102.089 49.2236L102.103 49.2166L102.116 49.208L101.977 49ZM103.537 48.74H103.287V48.7806L103.3 48.8191L103.537 48.74ZM104.967 48.48L104.72 48.5211L104.722 48.5309L104.724 48.5406L104.967 48.48ZM103.797 47.05L103.685 47.2736L103.694 47.2783L103.704 47.2821L103.797 47.05ZM99.2469 47.31L99.0498 47.1562L99.0107 47.2062L99.0003 47.2689L99.2469 47.31ZM111.077 2.72V2.97H111.108L111.138 2.96253L111.077 2.72ZM108.087 25.47L108.323 25.5508L108.324 25.5496L108.087 25.47ZM100.027 43.54L100.267 43.6087L100.271 43.5965L100.273 43.5839L100.027 43.54ZM109.907 4.27999L109.693 4.15137L109.689 4.1579L109.685 4.16465L109.907 4.27999ZM110.031 1.08038C109.666 1.31739 109.312 1.70841 108.968 2.211C108.621 2.71642 108.274 3.3499 107.927 4.08838C107.233 5.56535 106.532 7.48259 105.838 9.68097C104.449 14.0789 103.082 19.6285 101.863 25.0905C100.643 30.5538 99.5704 35.9351 98.77 39.9979C98.3697 42.0301 98.0379 43.7308 97.7898 44.9485C97.6657 45.5575 97.563 46.0435 97.4834 46.3885C97.4436 46.5614 97.4102 46.6962 97.3833 46.7923C97.3698 46.8406 97.3587 46.8763 97.3501 46.9008C97.339 46.9321 97.3379 46.9277 97.3489 46.9113L97.7649 47.1887C97.7921 47.1479 97.8103 47.0992 97.8217 47.0669C97.8355 47.0278 97.8499 46.9804 97.8648 46.927C97.8948 46.8198 97.9302 46.6763 97.9707 46.5008C98.0517 46.1492 98.1555 45.6581 98.2797 45.0483C98.5282 43.8285 98.8606 42.1249 99.2606 40.0946C100.061 36.0324 101.133 30.6562 102.351 25.1995C103.569 19.7415 104.932 14.2086 106.314 9.83152C107.006 7.6424 107.699 5.74901 108.38 4.30098C108.72 3.57696 109.054 2.96934 109.38 2.49368C109.708 2.01517 110.018 1.6851 110.303 1.4996L110.031 1.08038ZM97.3801 46.8732C97.2431 47.0103 97.1288 47.155 97.099 47.3339C97.0687 47.5159 97.1355 47.6764 97.2033 47.8118L97.6505 47.5882C97.5882 47.4636 97.5901 47.4291 97.5922 47.4161C97.5949 47.4 97.6107 47.3497 97.7337 47.2268L97.3801 46.8732ZM97.1817 47.749C97.1806 47.7435 97.1827 47.7523 97.1824 47.786C97.1821 47.8162 97.1801 47.8568 97.176 47.9087C97.1677 48.0125 97.1517 48.1503 97.1288 48.3199C97.0832 48.6585 97.0116 49.1108 96.9242 49.6441C96.7499 50.7082 96.5137 52.0888 96.3022 53.4966C96.0906 54.9039 95.9025 56.3464 95.8246 57.5373C95.7857 58.1324 95.7738 58.6708 95.8017 59.1138C95.8288 59.5452 95.8953 59.9263 96.0409 60.176L96.4728 59.924C96.391 59.7837 96.3274 59.5066 96.3007 59.0824C96.2748 58.6697 96.2853 58.155 96.3235 57.5699C96.4 56.4005 96.5856 54.9748 96.7966 53.5709C97.0075 52.1675 97.2426 50.7937 97.4176 49.7249C97.505 49.1918 97.5776 48.7331 97.6244 48.3867C97.6477 48.2138 97.665 48.0656 97.6744 47.9486C97.6828 47.8434 97.6881 47.7312 97.672 47.651L97.1817 47.749ZM96.0333 60.1618C96.3216 60.7386 96.7845 61.08 97.2969 61.08V60.58C97.0292 60.58 96.7121 60.4014 96.4805 59.9382L96.0333 60.1618ZM97.2969 61.08C97.7204 61.08 98.1001 60.8275 98.2706 60.4652C98.4493 60.0855 98.3867 59.6163 97.9937 59.2232L97.6401 59.5768C97.8971 59.8337 97.8995 60.0795 97.8182 60.2523C97.7287 60.4425 97.5234 60.58 97.2969 60.58V61.08ZM97.9937 59.2232C97.9573 59.1868 97.9276 59.1595 97.9044 59.1384C97.8776 59.1143 97.87 59.1077 97.8637 59.1013C97.8595 59.0972 97.8759 59.1121 97.8891 59.1412C97.9037 59.1734 97.9044 59.1999 97.9044 59.205C97.9044 59.2051 97.9046 59.1989 97.9079 59.1686C97.9108 59.1426 97.9153 59.1048 97.9196 59.057C97.9284 58.9599 97.9369 58.8224 97.9369 58.62H97.4369C97.4369 58.8076 97.4291 58.9301 97.4217 59.0117C97.4179 59.0533 97.4142 59.0846 97.411 59.1134C97.4083 59.138 97.4044 59.1724 97.4044 59.205C97.4044 59.2426 97.4091 59.2935 97.4339 59.3481C97.4573 59.3995 97.4899 59.4347 97.5101 59.4549C97.5282 59.473 97.553 59.4948 97.5689 59.5092C97.5883 59.5268 97.6115 59.5482 97.6401 59.5768L97.9937 59.2232ZM97.9369 58.62C97.9369 58.5015 97.9685 57.8931 98.0172 57.3251C98.0415 57.0419 98.0693 56.777 98.0984 56.5932C98.1134 56.4981 98.1266 56.4387 98.1358 56.4109C98.1431 56.3887 98.1384 56.4155 98.1094 56.448C98.0934 56.4661 98.0436 56.5155 97.9578 56.5235C97.8632 56.5322 97.7982 56.4849 97.7701 56.4568L98.1236 56.1032C98.0874 56.067 98.0143 56.0161 97.9116 56.0256C97.8177 56.0343 97.7597 56.0888 97.7356 56.1159C97.6905 56.1668 97.6697 56.2279 97.661 56.2542C97.6381 56.3234 97.6199 56.4173 97.6045 56.5152C97.5725 56.7174 97.5435 56.9968 97.519 57.2824C97.4702 57.8519 97.4369 58.4785 97.4369 58.62H97.9369ZM97.9469 56.53C98.0323 56.53 98.0954 56.5497 98.1928 56.5822C98.2904 56.6147 98.4223 56.66 98.5969 56.66V56.16C98.5115 56.16 98.4483 56.1403 98.3509 56.1078C98.2533 56.0753 98.1215 56.03 97.9469 56.03V56.53ZM98.5969 56.66C99.4545 56.66 100.431 56.4039 101.439 56.0068C102.45 55.6086 103.51 55.0617 104.54 54.4651C106.598 53.2727 108.559 51.8673 109.788 51.0263L109.506 50.6137C108.265 51.4627 106.326 52.8523 104.289 54.0324C103.271 54.6221 102.235 55.1558 101.256 55.5416C100.273 55.9286 99.3643 56.16 98.5969 56.16V56.66ZM109.786 51.028C109.996 50.8876 110.196 50.7167 110.348 50.5276C110.497 50.3411 110.616 50.1168 110.628 49.8731C110.64 49.6147 110.53 49.3761 110.301 49.1843C110.082 49.0001 109.754 48.8582 109.313 48.7564L109.201 49.2436C109.605 49.3368 109.846 49.4549 109.98 49.5673C110.105 49.6721 110.132 49.7665 110.128 49.8494C110.124 49.947 110.072 50.072 109.958 50.2146C109.845 50.3545 109.688 50.4924 109.508 50.612L109.786 51.028ZM109.114 48.7952C108.46 49.2525 106.485 50.6771 104.364 51.9886C103.303 52.6444 102.212 53.2686 101.235 53.728C100.247 54.1927 99.4136 54.47 98.8569 54.47V54.97C99.5351 54.97 100.457 54.6461 101.447 54.1805C102.449 53.7095 103.559 53.0743 104.627 52.4139C106.764 51.0929 108.754 49.6575 109.4 49.2048L109.114 48.7952ZM98.8569 54.47C98.7178 54.47 98.6487 54.4689 98.5972 54.4586C98.5628 54.4517 98.5426 54.4422 98.5136 54.4132L98.1601 54.7668C98.3748 54.9815 98.6171 54.97 98.8569 54.97V54.47ZM98.4655 54.3756C98.4751 54.3814 98.4439 54.3685 98.4251 54.2593C98.4073 54.1562 98.4085 54.0057 98.4395 53.8108C98.5013 53.4231 98.6733 52.9086 98.9648 52.3493C99.5476 51.2311 100.586 49.975 102.089 49.2236L101.865 48.7764C100.248 49.585 99.1412 50.9289 98.5214 52.1182C98.2117 52.7126 98.018 53.2787 97.9458 53.732C97.9098 53.9575 97.9019 54.1676 97.9323 54.3443C97.9617 54.5149 98.0361 54.7011 98.2083 54.8044L98.4655 54.3756ZM102.116 49.208C102.293 49.09 102.536 48.9675 102.768 48.8746C102.884 48.8285 102.993 48.7912 103.085 48.7658C103.182 48.7392 103.246 48.73 103.277 48.73V48.23C103.178 48.23 103.063 48.2533 102.953 48.2836C102.838 48.3151 102.711 48.359 102.583 48.4104C102.328 48.5125 102.051 48.65 101.838 48.792L102.116 49.208ZM103.277 48.73C103.268 48.73 103.264 48.7278 103.267 48.7289C103.269 48.73 103.274 48.7328 103.279 48.738C103.284 48.7432 103.287 48.7479 103.288 48.7503C103.289 48.7526 103.287 48.7491 103.287 48.74H103.787C103.787 48.5937 103.716 48.4683 103.632 48.3845C103.549 48.3006 103.423 48.23 103.277 48.23V48.73ZM103.3 48.8191C103.478 49.3531 104.001 49.51 104.317 49.51V49.01C104.112 49.01 103.856 48.9069 103.774 48.6609L103.3 48.8191ZM104.317 49.51C104.561 49.51 104.826 49.4293 105.014 49.2418C105.212 49.043 105.293 48.755 105.209 48.4194L104.724 48.5406C104.77 48.725 104.721 48.827 104.66 48.8882C104.588 48.9607 104.462 49.01 104.317 49.01V49.51ZM105.213 48.4389C105.143 48.0143 104.997 47.6766 104.767 47.4073C104.537 47.1395 104.238 46.9573 103.89 46.8179L103.704 47.2821C104.006 47.4027 104.227 47.5455 104.387 47.7327C104.546 47.9184 104.661 48.1657 104.72 48.5211L105.213 48.4389ZM103.909 46.8264C103.592 46.6679 103.279 46.67 103.147 46.67V47.17C103.275 47.17 103.482 47.1721 103.685 47.2736L103.909 46.8264ZM103.147 46.67C102.023 46.67 100.928 47.2968 100.14 47.8717C99.7402 48.1629 99.4084 48.4492 99.1788 48.6522C99.0614 48.756 98.9771 48.8323 98.9189 48.8815C98.8877 48.9078 98.8763 48.9158 98.8767 48.9156C98.8778 48.9149 98.8835 48.9113 98.8926 48.9069C98.8991 48.9038 98.922 48.8931 98.9549 48.888C98.9843 48.8835 99.0701 48.8766 99.1489 48.9426C99.2292 49.0099 99.2369 49.0976 99.2369 49.13H98.7369C98.7369 49.1665 98.7456 49.2571 98.8279 49.326C98.9087 49.3936 98.9975 49.3873 99.0309 49.3822C99.0921 49.3728 99.1377 49.3421 99.1448 49.3376C99.1767 49.3174 99.212 49.2884 99.2418 49.2632C99.3054 49.2094 99.3999 49.1241 99.5099 49.0268C99.7353 48.8276 100.054 48.5533 100.434 48.2757C101.206 47.7132 102.19 47.17 103.147 47.17V46.67ZM98.9869 49.13C99.2369 49.13 99.2369 49.1301 99.2369 49.1302C99.2369 49.1303 99.2369 49.1304 99.2369 49.1305C99.2369 49.1306 99.2369 49.1308 99.2369 49.1309C99.2369 49.1312 99.2369 49.1315 99.2369 49.1317C99.2369 49.1322 99.2369 49.1326 99.2369 49.1329C99.2368 49.1335 99.2368 49.1338 99.2368 49.1336C99.2368 49.1334 99.2369 49.1317 99.2371 49.1283C99.2374 49.1214 99.2382 49.1079 99.2401 49.0858C99.2438 49.0414 99.2515 48.9637 99.2674 48.836C99.2994 48.5806 99.3638 48.1292 99.4935 47.3511L99.0003 47.2689C98.87 48.0508 98.8044 48.5094 98.7713 48.774C98.7548 48.9063 98.7462 48.9911 98.7418 49.0442C98.7396 49.0708 98.7384 49.0899 98.7377 49.1033C98.7374 49.11 98.7372 49.1154 98.737 49.1198C98.737 49.1219 98.7369 49.1238 98.7369 49.1255C98.7369 49.1264 98.7369 49.1272 98.7369 49.1279C98.7369 49.1283 98.7369 49.1286 98.7369 49.129C98.7369 49.1292 98.7369 49.1293 98.7369 49.1295C98.7369 49.1296 98.7369 49.1297 98.7369 49.1297C98.7369 49.1299 98.7369 49.13 98.9869 49.13ZM99.4439 47.4638C105.261 40.0131 109.659 28.3707 111.922 18.6039C113.053 13.719 113.655 9.28587 113.628 6.06543C113.615 4.45856 113.445 3.13194 113.093 2.19817C112.743 1.26757 112.175 0.649998 111.337 0.649998V1.15C111.864 1.15 112.303 1.51961 112.626 2.37449C112.947 3.22618 113.115 4.48331 113.128 6.06956C113.154 9.23538 112.562 13.626 111.435 18.4911C109.18 28.2243 104.803 39.7869 99.0498 47.1562L99.4439 47.4638ZM111.337 0.649998C111.174 0.649998 110.953 0.689104 110.727 0.758552C110.499 0.82876 110.248 0.935412 110.028 1.08198L110.306 1.49801C110.476 1.38458 110.68 1.29623 110.874 1.23644C111.071 1.17589 111.24 1.15 111.337 1.15V0.649998ZM111.138 2.96253C111.019 2.99216 110.965 2.90413 110.996 2.94097C111.014 2.96141 111.046 3.01171 111.086 3.10718C111.165 3.29403 111.254 3.5996 111.333 4.034C111.489 4.8995 111.598 6.24158 111.526 8.08893C111.381 11.7821 110.509 17.4784 107.85 25.3904L108.324 25.5496C110.995 17.6016 111.878 11.8579 112.025 8.10856C112.099 6.23466 111.989 4.85487 111.825 3.94506C111.743 3.4918 111.646 3.14636 111.547 2.91223C111.498 2.79721 111.443 2.69454 111.379 2.61868C111.329 2.55922 111.2 2.43159 111.016 2.47746L111.138 2.96253ZM107.85 25.3891C106.099 30.5125 104.023 35.2481 102.418 38.5892C101.615 40.2598 100.931 41.5798 100.464 42.4238C100.23 42.8473 100.054 43.1456 99.9462 43.3079C99.9195 43.3482 99.899 43.3771 99.8842 43.3963C99.8643 43.422 99.867 43.4141 99.8862 43.3997C99.8928 43.3947 99.9079 43.3841 99.9302 43.3745C99.9506 43.3657 99.9958 43.3498 100.055 43.3574C100.124 43.3663 100.183 43.4036 100.22 43.4543C100.252 43.4974 100.261 43.539 100.264 43.5579C100.267 43.5789 100.267 43.595 100.266 43.6021C100.266 43.6102 100.265 43.6156 100.265 43.6172C100.264 43.6201 100.265 43.618 100.267 43.6087L99.7865 43.4713C99.781 43.4905 99.7756 43.512 99.7719 43.5341C99.7691 43.5506 99.7629 43.5906 99.7703 43.6369C99.7741 43.6607 99.7845 43.7061 99.8183 43.7518C99.8578 43.8053 99.919 43.8441 99.9913 43.8534C100.053 43.8613 100.102 43.8447 100.127 43.8341C100.154 43.8227 100.174 43.8091 100.186 43.8C100.227 43.7693 100.26 43.7273 100.28 43.7016C100.305 43.6693 100.333 43.6295 100.363 43.5842C100.482 43.4042 100.667 43.0911 100.902 42.6656C101.374 41.8115 102.063 40.4827 102.868 38.8058C104.48 35.4519 106.564 30.6975 108.323 25.5508L107.85 25.3891ZM100.273 43.5839C100.922 39.9483 102.546 31.7625 104.43 23.6742C105.372 19.6301 106.379 15.6128 107.36 12.2019C108.343 8.78496 109.296 5.99571 110.129 4.39533L109.685 4.16465C108.827 5.81428 107.863 8.64752 106.88 12.0637C105.895 15.486 104.886 19.5124 103.943 23.5608C102.057 31.6575 100.432 39.8517 99.7808 43.4961L100.273 43.5839ZM110.121 4.40862C110.312 4.09046 110.568 3.70702 110.791 3.40455C110.902 3.25279 111.003 3.12589 111.08 3.03892C111.12 2.99476 111.149 2.96656 111.167 2.95139C111.176 2.94362 111.177 2.94407 111.17 2.94768C111.17 2.94808 111.134 2.97 111.077 2.97V2.47C111.004 2.47 110.948 2.49903 110.923 2.51307C110.893 2.53033 110.866 2.55096 110.844 2.56934C110.8 2.60648 110.753 2.65445 110.708 2.70576C110.615 2.80973 110.504 2.95095 110.388 3.10795C110.156 3.42297 109.892 3.81953 109.693 4.15137L110.121 4.40862ZM97.0105 93.46L97.2577 93.4229L97.2574 93.4207L97.0105 93.46ZM118.2 65.77L118.018 65.5988L117.974 65.6457L117.958 65.7083L118.2 65.77ZM131.98 49L132.01 48.7518L131.884 48.7366L131.797 48.8299L131.98 49ZM119.11 62.52V62.77H119.217L119.291 62.6932L119.11 62.52ZM120.8 53.68L120.557 53.6237L120.555 53.6334L120.8 53.68ZM113.91 48.87L113.664 48.8289L113.662 48.839L113.91 48.87ZM113.52 47.57L113.344 47.7468L113.393 47.7957L113.46 47.8125L113.52 47.57ZM113.13 47.57L113.179 47.8151L113.254 47.8003L113.307 47.7468L113.13 47.57ZM112.48 49L112.725 49.0524L112.73 49.0265V49H112.48ZM112.74 53.03L112.975 52.9422L112.967 52.9234L112.958 52.906L112.74 53.03ZM114.95 54.46V54.71H114.972L114.994 54.7062L114.95 54.46ZM119.76 50.43L120.006 50.4756L120.03 50.3463L119.937 50.2532L119.76 50.43ZM116.77 64.99L116.952 65.1623L116.998 65.1134L117.014 65.0479L116.77 64.99ZM98.7005 90.99L98.9457 91.0391L98.9471 91.0311L98.7005 90.99ZM108.45 76.43L108.266 76.261L108.262 76.2663L108.45 76.43ZM115.86 68.37L116.104 68.428L116.326 67.4954L115.677 68.2006L115.86 68.37ZM102.08 96.19L102.011 95.9498L101.989 95.9561L101.969 95.9664L102.08 96.19ZM96.7632 93.4971C97.1635 96.1657 98.9192 98.26 101.3 98.26V97.76C99.2617 97.76 97.6374 95.9543 97.2577 93.4229L96.7632 93.4971ZM101.3 98.26C103.635 98.26 105.756 96.5732 107.633 94.0542C109.519 91.5243 111.206 88.0928 112.664 84.4695C115.58 77.2205 117.598 69.1446 118.443 65.8317L117.958 65.7083C117.113 69.0254 115.101 77.0695 112.2 84.283C110.748 87.891 109.08 91.2763 107.232 93.7554C105.376 96.2455 103.386 97.76 101.3 97.76V98.26ZM118.383 65.9412C121.956 62.1406 124.806 59.217 127.022 56.9631C129.235 54.7114 130.82 53.122 131.856 51.9968C132.373 51.4344 132.761 50.9802 133.023 50.612C133.277 50.2544 133.444 49.9382 133.459 49.6598C133.467 49.5093 133.432 49.3677 133.345 49.2449C133.262 49.1266 133.143 49.0438 133.015 48.9829C132.766 48.8645 132.416 48.8005 132.01 48.7518L131.951 49.2482C132.357 49.297 132.633 49.3549 132.801 49.4345C132.881 49.4727 132.919 49.5079 132.937 49.5332C132.951 49.554 132.963 49.5815 132.96 49.6321C132.953 49.7559 132.866 49.9698 132.615 50.3221C132.372 50.6639 132.002 51.0994 131.488 51.6582C130.46 52.7755 128.884 54.3548 126.665 56.6126C124.448 58.868 121.595 61.7944 118.018 65.5988L118.383 65.9412ZM131.797 48.8299C130.109 50.6483 126.893 54.027 124.097 56.9523C122.7 58.4147 121.408 59.7633 120.466 60.7464C119.994 61.2379 119.611 61.638 119.344 61.9153C119.211 62.0539 119.108 62.1618 119.038 62.235C119.002 62.2716 118.976 62.2996 118.957 62.3184C118.948 62.3278 118.942 62.3349 118.937 62.3397C118.935 62.342 118.933 62.3438 118.932 62.345C118.931 62.3456 118.931 62.3461 118.931 62.3464C118.93 62.3465 118.93 62.3466 118.93 62.3467C118.93 62.3468 118.93 62.3468 119.11 62.52C119.291 62.6932 119.291 62.6931 119.291 62.6931C119.291 62.693 119.291 62.6929 119.291 62.6927C119.291 62.6924 119.292 62.692 119.293 62.6914C119.294 62.6902 119.295 62.6884 119.298 62.686C119.302 62.6812 119.309 62.6741 119.318 62.6647C119.336 62.6459 119.363 62.6179 119.398 62.5813C119.469 62.508 119.572 62.4001 119.705 62.2615C119.971 61.9842 120.355 61.584 120.827 61.0924C121.769 60.1092 123.061 58.7603 124.459 57.2977C127.253 54.373 130.472 50.9917 132.164 49.1701L131.797 48.8299ZM119.11 62.27C119.164 62.27 119.22 62.2888 119.266 62.329C119.306 62.3644 119.322 62.4033 119.329 62.4217C119.34 62.4542 119.337 62.4736 119.337 62.4545C119.338 62.4247 119.345 62.361 119.365 62.2408C119.405 62.0065 119.485 61.6139 119.615 60.9777C119.875 59.7097 120.331 57.4983 121.046 53.7266L120.555 53.6334C119.84 57.4017 119.385 59.6103 119.126 60.8773C118.996 61.5086 118.914 61.9122 118.872 62.1573C118.852 62.2768 118.839 62.3735 118.837 62.4444C118.837 62.4755 118.837 62.5302 118.856 62.5854C118.866 62.6152 118.888 62.6623 118.934 62.703C118.985 62.7487 119.049 62.77 119.11 62.77V62.27ZM121.044 53.7362C121.428 52.0726 121.891 50.5102 122.04 49.3903C122.113 48.8323 122.119 48.3279 121.964 47.9537C121.883 47.7588 121.757 47.5942 121.573 47.4811C121.392 47.3694 121.175 47.32 120.93 47.32V47.82C121.109 47.82 121.229 47.8559 121.311 47.9067C121.391 47.9561 121.455 48.0312 121.502 48.1451C121.603 48.3884 121.616 48.7777 121.544 49.3247C121.4 50.4148 120.953 51.9074 120.557 53.6238L121.044 53.7362ZM120.93 47.32C120.683 47.32 120.425 47.4299 120.18 47.5803C119.929 47.7339 119.661 47.9484 119.386 48.1969C118.835 48.6935 118.226 49.3528 117.627 50.0002C117.023 50.6528 116.43 51.2935 115.9 51.7719C115.635 52.0109 115.393 52.2027 115.18 52.3334C114.961 52.4674 114.8 52.52 114.69 52.52V53.02C114.938 53.02 115.196 52.9101 115.441 52.7597C115.692 52.6061 115.96 52.3916 116.235 52.1431C116.786 51.6465 117.395 50.9872 117.994 50.3398C118.598 49.6872 119.191 49.0465 119.721 48.5681C119.986 48.3291 120.228 48.1373 120.441 48.0066C120.66 47.8726 120.821 47.82 120.93 47.82V47.32ZM114.69 52.52C114.574 52.52 114.453 52.4487 114.338 52.2016C114.224 51.9557 114.15 51.5991 114.111 51.1861C114.032 50.3654 114.095 49.4101 114.159 48.901L113.662 48.839C113.596 49.3699 113.529 50.3646 113.613 51.2339C113.654 51.6658 113.735 52.0893 113.885 52.4122C114.034 52.7337 114.287 53.02 114.69 53.02V52.52ZM114.157 48.9111C114.221 48.5303 114.265 48.1878 114.203 47.92C114.17 47.7758 114.104 47.6434 113.991 47.5364C113.879 47.4315 113.739 47.3669 113.581 47.3275L113.46 47.8125C113.562 47.8381 113.617 47.871 113.648 47.9002C113.676 47.9272 113.7 47.9654 113.716 48.0325C113.751 48.1872 113.73 48.4297 113.664 48.8289L114.157 48.9111ZM113.697 47.3932C113.605 47.301 113.48 47.2225 113.325 47.2225C113.171 47.2225 113.046 47.301 112.954 47.3932L113.307 47.7468C113.326 47.7285 113.337 47.722 113.34 47.7205C113.342 47.7195 113.336 47.7225 113.325 47.7225C113.315 47.7225 113.309 47.7195 113.311 47.7205C113.314 47.722 113.325 47.7285 113.344 47.7468L113.697 47.3932ZM113.081 47.3249C112.878 47.3656 112.71 47.4508 112.58 47.5781C112.451 47.7038 112.372 47.8575 112.323 48.0154C112.228 48.3194 112.23 48.6867 112.23 49H112.73C112.73 48.6633 112.733 48.3806 112.8 48.1646C112.832 48.0625 112.875 47.9887 112.929 47.9356C112.982 47.8842 113.058 47.8394 113.179 47.8151L113.081 47.3249ZM112.236 48.9476C111.84 50.7966 111.96 52.1682 112.523 53.154L112.958 52.906C112.481 52.0718 112.341 50.8434 112.725 49.0524L112.236 48.9476ZM112.506 53.1178C112.943 54.2833 113.97 54.71 114.95 54.71V54.21C114.111 54.21 113.317 53.8567 112.975 52.9422L112.506 53.1178ZM114.994 54.7062C115.602 54.5989 116.208 54.2643 116.766 53.8479C117.327 53.4292 117.858 52.9136 118.318 52.4206C118.779 51.9271 119.173 51.4505 119.457 51.11C119.601 50.9377 119.712 50.8051 119.791 50.7193C119.832 50.6749 119.855 50.6529 119.865 50.645C119.872 50.6392 119.859 50.6513 119.832 50.662C119.814 50.6691 119.689 50.7118 119.584 50.6068L119.937 50.2532C119.824 50.1401 119.686 50.1822 119.651 50.1961C119.606 50.2133 119.572 50.2393 119.553 50.2541C119.512 50.2874 119.467 50.3334 119.423 50.3804C119.334 50.4774 119.214 50.621 119.073 50.79C118.788 51.132 118.402 51.5979 117.953 52.0794C117.503 52.5614 116.994 53.0533 116.467 53.4471C115.936 53.8432 115.404 54.1261 114.907 54.2138L114.994 54.7062ZM119.76 50.43C119.515 50.3843 119.515 50.3844 119.515 50.3844C119.515 50.3845 119.515 50.3846 119.515 50.3848C119.515 50.385 119.514 50.3854 119.514 50.386C119.514 50.3871 119.514 50.3887 119.513 50.3909C119.513 50.3953 119.511 50.4018 119.51 50.4105C119.507 50.4278 119.502 50.4537 119.495 50.4876C119.483 50.5555 119.464 50.6559 119.44 50.7855C119.391 51.0448 119.32 51.4214 119.231 51.8904C119.052 52.8284 118.8 54.1359 118.508 55.614C117.923 58.5711 117.176 62.2071 116.527 64.9321L117.014 65.0479C117.665 62.3129 118.413 58.6689 118.998 55.711C119.291 54.2316 119.543 52.9228 119.722 51.984C119.811 51.5145 119.882 51.1375 119.931 50.8778C119.955 50.748 119.974 50.6475 119.987 50.5794C119.993 50.5454 119.998 50.5195 120.001 50.502C120.003 50.4933 120.004 50.4867 120.005 50.4823C120.005 50.4801 120.006 50.4785 120.006 50.4773C120.006 50.4768 120.006 50.4764 120.006 50.4761C120.006 50.4759 120.006 50.4758 120.006 50.4758C120.006 50.4757 120.006 50.4756 119.76 50.43ZM116.589 64.8177C109.051 72.7457 103.872 78.4454 100.691 82.8818C97.5138 87.3136 96.2923 90.5369 96.7636 93.4993L97.2574 93.4207C96.8186 90.6631 97.9371 87.5814 101.097 83.1732C104.254 78.7696 109.41 73.0943 116.952 65.1623L116.589 64.8177ZM98.9471 91.0311C99.3264 88.755 100.886 86.1316 102.801 83.5671C104.711 81.0091 106.944 78.5498 108.639 76.5937L108.262 76.2663C106.577 78.2102 104.325 80.6908 102.4 83.2679C100.48 85.8384 98.8545 88.545 98.4539 90.9489L98.9471 91.0311ZM108.635 76.5989C110.065 75.0391 111.917 73.0242 113.412 71.3993C114.159 70.5868 114.818 69.8718 115.289 69.36C115.524 69.104 115.713 68.8989 115.843 68.7577C115.908 68.6871 115.959 68.6325 115.993 68.5956C116.01 68.5771 116.023 68.5631 116.031 68.5536C116.036 68.5489 116.039 68.5453 116.041 68.543C116.042 68.5418 116.043 68.5409 116.044 68.5403C116.044 68.54 116.044 68.5397 116.044 68.5396C116.044 68.5395 116.044 68.5395 116.044 68.5394C116.044 68.5394 116.044 68.5394 115.86 68.37C115.677 68.2006 115.677 68.2006 115.677 68.2007C115.676 68.2007 115.676 68.2008 115.676 68.2009C115.676 68.201 115.676 68.2012 115.676 68.2015C115.675 68.2021 115.674 68.203 115.673 68.2042C115.671 68.2066 115.668 68.2102 115.663 68.2149C115.655 68.2243 115.642 68.2384 115.625 68.2569C115.591 68.2938 115.54 68.3484 115.475 68.419C115.345 68.5602 115.157 68.7654 114.921 69.0213C114.45 69.5332 113.792 70.2482 113.044 71.0607C111.549 72.6858 109.696 74.7009 108.266 76.2611L108.635 76.5989ZM115.86 68.37C115.617 68.312 115.617 68.312 115.617 68.3122C115.617 68.3124 115.617 68.3127 115.617 68.313C115.617 68.3138 115.617 68.3149 115.616 68.3164C115.616 68.3194 115.614 68.324 115.613 68.33C115.61 68.3422 115.606 68.3604 115.6 68.3845C115.588 68.4327 115.571 68.5043 115.547 68.598C115.501 68.7854 115.432 69.0608 115.341 69.4122C115.159 70.1151 114.891 71.1222 114.545 72.3377C113.854 74.7692 112.853 78.0328 111.612 81.364C110.372 84.6971 108.895 88.0887 107.256 90.7807C106.436 92.1267 105.58 93.291 104.697 94.1844C103.813 95.079 102.914 95.6896 102.011 95.9498L102.15 96.4302C103.164 96.1379 104.134 95.4648 105.053 94.5358C105.972 93.6057 106.851 92.4066 107.683 91.0408C109.346 88.3094 110.836 84.8841 112.081 81.5385C113.327 78.1909 114.333 74.9139 115.026 72.4745C115.373 71.2545 115.643 70.2436 115.825 69.5373C115.916 69.1841 115.986 68.9072 116.033 68.7183C116.056 68.6239 116.074 68.5515 116.086 68.5026C116.092 68.4781 116.096 68.4596 116.099 68.4471C116.101 68.4408 116.102 68.4361 116.102 68.4329C116.103 68.4313 116.103 68.4301 116.103 68.4293C116.103 68.4289 116.104 68.4286 116.104 68.4284C116.104 68.4281 116.104 68.428 115.86 68.37ZM101.969 95.9664C101.769 96.0664 101.567 96.07 101.3 96.07V96.57C101.554 96.57 101.872 96.5736 102.192 96.4136L101.969 95.9664ZM101.3 96.07C100.459 96.07 99.7491 95.4828 99.3007 94.5241C98.8539 93.5688 98.6952 92.2911 98.9456 91.039L98.4553 90.941C98.1857 92.2889 98.3521 93.6762 98.8478 94.7359C99.3418 95.7922 100.192 96.57 101.3 96.57V96.07ZM141.781 53.94L141.702 53.7028L141.602 53.7363L141.556 53.8318L141.781 53.94ZM148.021 50.82L147.9 50.6014L147.896 50.6038L148.021 50.82ZM147.501 49L147.555 48.756L147.457 48.7342L147.372 48.7863L147.501 49ZM142.301 51.47L142.052 51.4474L142.051 51.4587V51.47H142.301ZM140.871 47.18L141.038 46.9929L141.027 46.9848L140.871 47.18ZM135.281 52.12L135.509 52.2234L135.55 52.1324L135.517 52.0379L135.281 52.12ZM136.711 50.04L136.474 49.9609L136.472 49.9682L136.711 50.04ZM140.351 52.51L140.43 52.7472L140.567 52.7017L140.596 52.561L140.351 52.51ZM136.061 54.59L135.824 54.5109L135.821 54.5213L136.061 54.59ZM136.451 53.42L136.563 53.1964L136.305 53.0675L136.214 53.3409L136.451 53.42ZM136.841 53.68L136.664 53.8568L136.686 53.8785L136.713 53.8944L136.841 53.68ZM139.441 54.72L139.645 54.8654L139.649 54.8587L139.441 54.72ZM136.451 58.87C138.283 58.87 140.429 57.335 142.007 54.0482L141.556 53.8318C140.014 57.045 138 58.37 136.451 58.37V58.87ZM141.86 54.1772C143.837 53.5184 144.116 53.3768 148.147 51.0362L147.896 50.6038C143.867 52.9432 143.626 53.0616 141.702 53.7028L141.86 54.1772ZM148.143 51.0385C148.461 50.8618 148.691 50.6532 148.818 50.4166C148.95 50.1727 148.964 49.9142 148.872 49.6748C148.698 49.218 148.174 48.8935 147.555 48.756L147.447 49.244C147.998 49.3665 148.319 49.627 148.405 49.8527C148.444 49.9546 148.442 50.0616 148.378 50.1793C148.311 50.3043 148.167 50.4532 147.9 50.6015L148.143 51.0385ZM147.372 48.7863C145.551 49.8916 144.353 50.604 143.562 51.0398C143.166 51.2579 142.878 51.4037 142.667 51.4943C142.448 51.5888 142.343 51.61 142.301 51.61V52.11C142.454 52.11 142.642 52.05 142.865 51.9535C143.098 51.8532 143.403 51.6983 143.803 51.4777C144.605 51.036 145.812 50.3184 147.631 49.2137L147.372 48.7863ZM142.301 51.61C142.303 51.61 142.31 51.6101 142.32 51.6118C142.331 51.6135 142.348 51.6173 142.368 51.6265C142.416 51.6487 142.459 51.6913 142.48 51.7478C142.497 51.7925 142.493 51.8273 142.493 51.8311C142.492 51.8372 142.492 51.837 142.495 51.8231C142.507 51.7744 142.551 51.6389 142.551 51.47H142.051C142.051 51.5611 142.03 51.6206 142.01 51.7019C142.005 51.7205 141.999 51.7488 141.995 51.7793C141.993 51.8074 141.989 51.8625 142.012 51.9234C142.04 51.9962 142.094 52.051 142.16 52.0813C142.216 52.1067 142.269 52.11 142.301 52.11V51.61ZM142.55 51.4926C142.684 50.0188 142.289 48.1056 141.037 46.9931L140.705 47.3669C141.794 48.3344 142.178 50.0612 142.052 51.4474L142.55 51.4926ZM141.027 46.9848C140.346 46.4394 139.642 46.15 138.921 46.15V46.65C139.5 46.65 140.097 46.8806 140.715 47.3752L141.027 46.9848ZM138.921 46.15C136.408 46.15 133.949 49.0508 135.045 52.2021L135.517 52.0379C134.533 49.2092 136.755 46.65 138.921 46.65V46.15ZM135.054 52.0165C134.069 54.1818 133.816 55.8704 134.113 57.0402C134.262 57.6306 134.554 58.0929 134.965 58.4064C135.376 58.7195 135.886 58.87 136.451 58.87V58.37C135.976 58.37 135.577 58.2443 135.268 58.0089C134.96 57.774 134.724 57.4157 134.597 56.9173C134.342 55.9096 134.543 54.3482 135.509 52.2234L135.054 52.0165ZM136.948 50.1191C137.312 49.0289 138.271 48.34 139.051 48.34V47.84C138.012 47.84 136.891 48.7111 136.474 49.9609L136.948 50.1191ZM139.051 48.34C139.446 48.34 139.854 48.5797 140.102 49.2201C140.354 49.8718 140.427 50.9222 140.107 52.459L140.596 52.561C140.926 50.9778 140.869 49.8182 140.568 49.0399C140.263 48.2503 139.696 47.84 139.051 47.84V48.34ZM140.272 52.2728C139.927 52.388 139.577 52.39 139.181 52.39V52.89C139.566 52.89 139.996 52.892 140.43 52.7472L140.272 52.2728ZM139.181 52.39C138.261 52.39 137.622 52.0844 137.258 51.6638C136.895 51.2449 136.779 50.685 136.951 50.1118L136.472 49.9682C136.254 50.695 136.398 51.4351 136.88 51.9912C137.36 52.5456 138.151 52.89 139.181 52.89V52.39ZM136.298 54.6691L136.688 53.4991L136.214 53.3409L135.824 54.5109L136.298 54.6691ZM136.451 53.42C136.339 53.6436 136.339 53.6436 136.339 53.6436C136.339 53.6436 136.339 53.6436 136.339 53.6436C136.339 53.6436 136.339 53.6436 136.339 53.6435C136.339 53.6435 136.339 53.6435 136.339 53.6435C136.339 53.6435 136.339 53.6436 136.339 53.6436C136.34 53.6438 136.34 53.644 136.341 53.6444C136.342 53.6451 136.345 53.6463 136.348 53.6479C136.354 53.6511 136.364 53.6561 136.375 53.6625C136.399 53.6753 136.432 53.6937 136.469 53.7156C136.547 53.7625 136.622 53.8146 136.664 53.8568L137.018 53.5032C136.93 53.4154 136.81 53.3375 136.726 53.2869C136.681 53.2601 136.641 53.2378 136.612 53.2222C136.598 53.2144 136.586 53.2082 136.578 53.2038C136.573 53.2016 136.57 53.1999 136.567 53.1986C136.566 53.198 136.565 53.1975 136.565 53.1971C136.564 53.1969 136.564 53.1968 136.564 53.1967C136.563 53.1966 136.563 53.1965 136.563 53.1965C136.563 53.1965 136.563 53.1965 136.563 53.1964C136.563 53.1964 136.563 53.1964 136.563 53.1964C136.563 53.1964 136.563 53.1964 136.451 53.42ZM136.713 53.8944C137.737 54.509 138.564 54.579 139.059 54.5961C139.186 54.6005 139.272 54.6011 139.344 54.6061C139.378 54.6084 139.399 54.6112 139.411 54.6137C139.425 54.6166 139.414 54.6164 139.394 54.6039C139.369 54.5875 139.336 54.5547 139.322 54.505C139.315 54.4835 139.314 54.4655 139.315 54.4535C139.315 54.442 139.317 54.4352 139.317 54.4346C139.318 54.4339 139.317 54.4368 139.314 54.4442C139.311 54.4515 139.306 54.4615 139.299 54.4747C139.284 54.5014 139.263 54.5363 139.233 54.5813L139.649 54.8587C139.714 54.7609 139.775 54.6597 139.8 54.5641C139.814 54.513 139.824 54.4416 139.801 54.3643C139.777 54.2798 139.722 54.2198 139.663 54.1821C139.61 54.1482 139.554 54.1325 139.512 54.1239C139.468 54.1149 139.422 54.1102 139.378 54.1072C139.296 54.1015 139.184 54.1001 139.076 54.0964C138.629 54.081 137.895 54.021 136.97 53.4656L136.713 53.8944ZM139.238 54.5747C138.927 55.0094 138.424 55.5452 137.888 55.9705C137.621 56.1827 137.351 56.3629 137.099 56.489C136.844 56.6168 136.624 56.68 136.451 56.68V57.18C136.734 57.18 137.034 57.0807 137.323 56.9363C137.615 56.7902 137.914 56.5886 138.199 56.362C138.769 55.9098 139.305 55.3406 139.645 54.8653L139.238 54.5747ZM136.451 56.68C136.363 56.68 136.298 56.6585 136.249 56.6213C136.2 56.5843 136.145 56.5146 136.107 56.3767C136.029 56.0878 136.045 55.5582 136.302 54.6587L135.821 54.5213C135.558 55.4418 135.509 56.0822 135.625 56.5083C135.685 56.7279 135.792 56.9019 135.947 57.0194C136.101 57.1365 136.279 57.18 136.451 57.18V56.68ZM159.299 51.47L159.091 51.6087L159.165 51.72H159.299V51.47ZM158.259 48.74L158.147 48.9636L158.159 48.9695L158.171 48.9741L158.259 48.74ZM157.219 49L157.08 48.792L157.219 49ZM152.019 54.72L151.778 54.7887L151.84 55.0033L152.06 54.9666L152.019 54.72ZM152.279 49L152.523 49.0524L152.525 49.0411L152.279 49ZM152.409 47.83H152.659V47.7992L152.651 47.7694L152.409 47.83ZM151.109 47.44L150.932 47.2632L150.903 47.2919L150.885 47.3282L151.109 47.44ZM150.199 53.94L150.448 53.9192L150.447 53.9124L150.199 53.94ZM153.449 55.89L153.599 56.09L153.605 56.0851L153.611 56.0798L153.449 55.89ZM157.479 51.08L157.716 51.0009L157.565 50.5483L157.279 50.93L157.479 51.08ZM158.389 52.77L158.26 52.9844L158.268 52.9893L158.277 52.9936L158.389 52.77ZM165.149 50.69L165.02 50.4756L164.994 50.4915L164.972 50.5132L165.149 50.69ZM165.149 49L165.213 48.7584L165.122 48.734L165.037 48.7764L165.149 49ZM159.507 51.3313C159.501 51.3232 159.485 51.2883 159.466 51.2038C159.449 51.1248 159.435 51.0251 159.421 50.9048C159.394 50.6721 159.368 50.3643 159.318 50.0639C159.267 49.7617 159.189 49.4393 159.046 49.1615C158.9 48.8799 158.68 48.6311 158.347 48.5059L158.171 48.9741C158.357 49.0439 158.495 49.1851 158.601 49.391C158.71 49.6007 158.778 49.8633 158.825 50.1461C158.872 50.4307 158.895 50.7079 158.924 50.9627C158.939 51.0861 158.955 51.2058 158.978 51.3097C158.999 51.408 159.031 51.5193 159.091 51.6087L159.507 51.3313ZM158.371 48.5164C158.164 48.4133 157.932 48.4251 157.722 48.4826C157.509 48.5406 157.289 48.6528 157.08 48.792L157.357 49.208C157.539 49.0872 157.709 49.0043 157.853 48.9649C158 48.9249 158.093 48.9366 158.147 48.9636L158.371 48.5164ZM157.08 48.792C156.955 48.8753 156.795 49.032 156.62 49.2194C156.44 49.4126 156.228 49.6576 155.996 49.9339C155.531 50.486 154.976 51.1761 154.425 51.8478C153.873 52.5223 153.324 53.1793 152.867 53.675C152.638 53.9232 152.436 54.1261 152.271 54.2692C152.188 54.3408 152.118 54.3937 152.063 54.4292C152.003 54.4674 151.977 54.4735 151.978 54.4734L152.06 54.9666C152.158 54.9502 152.252 54.9015 152.331 54.8509C152.415 54.7976 152.505 54.7277 152.598 54.6472C152.784 54.4862 153 54.2676 153.234 54.0141C153.703 53.5064 154.26 52.839 154.812 52.1647C155.367 51.4876 155.916 50.8047 156.378 50.2558C156.609 49.9817 156.815 49.7442 156.986 49.5601C157.163 49.3702 157.287 49.2547 157.357 49.208L157.08 48.792ZM152.019 54.72C152.259 54.6513 152.259 54.6513 152.259 54.6514C152.259 54.6514 152.259 54.6514 152.259 54.6514C152.259 54.6514 152.259 54.6514 152.259 54.6513C152.259 54.6513 152.259 54.6512 152.259 54.651C152.259 54.6507 152.259 54.6502 152.259 54.6494C152.258 54.6479 152.258 54.6456 152.257 54.6424C152.255 54.6361 152.252 54.6266 152.249 54.614C152.242 54.589 152.232 54.5522 152.22 54.5058C152.197 54.413 152.165 54.2824 152.133 54.1322C152.069 53.8278 152.009 53.4583 152.009 53.16H151.509C151.509 53.5117 151.578 53.9222 151.644 54.2353C151.677 54.3938 151.711 54.5314 151.736 54.6295C151.748 54.6786 151.759 54.7179 151.766 54.7452C151.77 54.7589 151.773 54.7695 151.775 54.7768C151.776 54.7805 151.777 54.7833 151.777 54.7853C151.778 54.7863 151.778 54.7871 151.778 54.7877C151.778 54.7879 151.778 54.7882 151.778 54.7883C151.778 54.7884 151.778 54.7885 151.778 54.7885C151.778 54.7886 151.778 54.7886 151.778 54.7886C151.778 54.7887 151.778 54.7887 152.019 54.72ZM152.009 53.16C152.009 52.0125 152.136 50.8607 152.523 49.0524L152.034 48.9476C151.642 50.7793 151.509 51.9675 151.509 53.16H152.009ZM152.525 49.0411C152.657 48.2503 152.659 47.9763 152.659 47.83H152.159C152.159 47.9437 152.16 48.1897 152.032 48.9589L152.525 49.0411ZM152.651 47.7694C152.579 47.4784 152.461 47.2624 152.295 47.1202C152.125 46.9746 151.933 46.93 151.759 46.93V47.43C151.845 47.43 151.912 47.4504 151.97 47.4998C152.031 47.5526 152.109 47.6616 152.166 47.8906L152.651 47.7694ZM151.759 46.93C151.428 46.93 151.106 47.0895 150.932 47.2632L151.286 47.6168C151.372 47.5305 151.569 47.43 151.759 47.43V46.93ZM150.885 47.3282C150.857 47.3844 150.82 47.4972 150.782 47.6269C150.74 47.7668 150.689 47.9529 150.633 48.1746C150.52 48.6181 150.385 49.2083 150.262 49.8639C150.017 51.1678 149.816 52.7586 149.95 53.9676L150.447 53.9124C150.322 52.7814 150.51 51.2522 150.753 49.9561C150.874 49.3117 151.007 48.7319 151.117 48.2979C151.173 48.0809 151.222 47.9013 151.261 47.7691C151.281 47.7028 151.298 47.6497 151.311 47.6103C151.326 47.5664 151.333 47.5509 151.332 47.5518L150.885 47.3282ZM149.95 53.9608C150.017 54.7665 150.219 55.46 150.541 55.9602C150.865 56.4636 151.324 56.79 151.889 56.79V56.29C151.543 56.29 151.223 56.0964 150.962 55.6898C150.698 55.2799 150.511 54.6735 150.448 53.9192L149.95 53.9608ZM151.889 56.79C152.49 56.79 153.064 56.4908 153.599 56.09L153.299 55.69C152.793 56.0692 152.327 56.29 151.889 56.29V56.79ZM153.611 56.0798C154.546 55.2786 155.733 53.8249 157.679 51.23L157.279 50.93C155.325 53.5351 154.171 54.9414 153.286 55.7002L153.611 56.0798ZM157.242 51.1591C157.304 51.3473 157.351 51.5191 157.399 51.6866C157.445 51.8509 157.493 52.0137 157.556 52.1664C157.688 52.4854 157.883 52.758 158.26 52.9844L158.517 52.5556C158.245 52.392 158.115 52.2096 158.019 51.9761C157.968 51.8526 157.926 51.7147 157.88 51.55C157.834 51.3884 157.783 51.2027 157.716 51.0009L157.242 51.1591ZM158.277 52.9936C158.522 53.1163 158.838 53.28 159.169 53.28V52.78C158.979 52.78 158.775 52.6836 158.501 52.5464L158.277 52.9936ZM159.169 53.28C159.694 53.28 160.324 53.1412 160.964 52.9394C161.609 52.7364 162.281 52.4641 162.896 52.1852C163.511 51.9061 164.074 51.6188 164.5 51.3843C164.712 51.2671 164.892 51.1623 165.029 51.0776C165.155 50.9996 165.269 50.9236 165.326 50.8668L164.972 50.5132C164.973 50.5125 164.959 50.5251 164.917 50.554C164.88 50.5801 164.829 50.6133 164.765 50.6528C164.638 50.7316 164.466 50.832 164.258 50.9463C163.843 51.1749 163.292 51.4564 162.689 51.7298C162.086 52.0034 161.433 52.2674 160.814 52.4625C160.191 52.6588 159.618 52.78 159.169 52.78V53.28ZM165.277 50.9044C165.777 50.6045 166.078 50.3185 166.201 50.0308C166.266 49.8804 166.281 49.7305 166.25 49.588C166.22 49.4485 166.149 49.333 166.067 49.2408C165.909 49.0617 165.687 48.9424 165.524 48.8707C165.439 48.8334 165.363 48.8058 165.308 48.7875C165.28 48.7782 165.257 48.7712 165.241 48.7664C165.233 48.764 165.227 48.7622 165.222 48.7608C165.22 48.7602 165.218 48.7596 165.216 48.7592C165.215 48.759 165.215 48.7589 165.214 48.7587C165.214 48.7587 165.214 48.7586 165.214 48.7586C165.214 48.7585 165.213 48.7585 165.213 48.7585C165.213 48.7585 165.213 48.7584 165.149 49C165.084 49.2416 165.084 49.2415 165.084 49.2415C165.084 49.2415 165.084 49.2415 165.084 49.2415C165.084 49.2415 165.084 49.2414 165.084 49.2414C165.084 49.2414 165.084 49.2415 165.084 49.2415C165.085 49.2416 165.085 49.2419 165.087 49.2422C165.089 49.2429 165.093 49.2441 165.099 49.2458C165.111 49.2492 165.128 49.2545 165.15 49.2618C165.194 49.2764 165.255 49.2986 165.322 49.3284C165.464 49.3907 165.607 49.4746 165.693 49.5717C165.733 49.6176 165.754 49.6585 165.761 49.6942C165.769 49.727 165.769 49.7711 165.742 49.8339C165.682 49.9728 165.495 50.1905 165.02 50.4756L165.277 50.9044ZM165.037 48.7764C163.61 49.4896 162.283 50.1047 161.249 50.5409C160.732 50.7591 160.291 50.9314 159.949 51.0487C159.778 51.1074 159.634 51.1513 159.521 51.1802C159.402 51.2104 159.331 51.22 159.299 51.22V51.72C159.396 51.72 159.517 51.6971 159.644 51.6648C159.776 51.6313 159.933 51.5828 160.111 51.5216C160.468 51.3992 160.921 51.2221 161.443 51.0016C162.49 50.5603 163.827 49.9404 165.261 49.2236L165.037 48.7764Z" fill="black"/>
</svg>
