<svg width="30" height="30" viewBox="0 0 30 30" fill="none" xmlns="http://www.w3.org/2000/svg">
<g clip-path="url(#clip0)">
<path d="M29.33 0H0V29.33H29.33V0Z" fill="#50ABF1"/>
<path d="M3.88574 21.7416C5.83773 22.9796 8.1532 23.696 10.6353 23.696C17.6084 23.696 23.2611 18.0427 23.2611 11.0702C23.2611 10.8961 23.2574 10.7233 23.2507 10.551C23.5029 10.3526 25.0629 9.10228 25.4452 8.29851C25.4452 8.29851 24.1784 8.82496 22.9387 8.94898C22.9362 8.94898 22.9332 8.94956 22.9307 8.94956C22.9307 8.94956 22.9332 8.94834 22.9374 8.94531C23.0517 8.86898 24.6488 7.78178 24.865 6.48638C24.865 6.48638 23.969 6.96462 22.7145 7.38302C22.5068 7.45201 22.2894 7.51984 22.0653 7.58272C21.2566 6.71968 20.1072 6.181 18.8313 6.181C16.3839 6.181 14.4008 8.16355 14.4008 10.609C14.4008 10.9541 14.4405 11.29 14.5156 11.6125C14.1736 11.5985 8.96553 11.3065 5.42249 7.01585C5.42249 7.01585 3.30498 9.90663 6.68436 12.8792C6.68436 12.8792 5.65707 12.8383 4.7708 12.3087C4.7708 12.3087 4.44527 15.8108 8.27233 16.7063C8.27233 16.7063 7.51928 16.9915 6.3179 16.7881C6.3179 16.7881 6.98974 19.6178 10.3899 19.8823C10.3899 19.8823 7.70122 22.3111 3.88452 21.7413L3.88574 21.7416Z" fill="white"/>
</g>
<defs>
<clipPath id="clip0">
<rect width="29.33" height="29.33" rx="5" fill="white"/>
</clipPath>
</defs>
</svg>
